<svg xmlns="http://www.w3.org/2000/svg" viewBox="119 427 797 171" version="1.1"><path d="M 136.774 431 C 124.766 431.688, 124.391 432.091, 123.494 445.254 C 123.102 451.002, 122.943 485.735, 123.141 522.439 L 123.500 589.173 126.306 591.587 L 129.112 594 199.133 594 L 269.154 594 272.077 591.077 L 275 588.154 275 512.133 L 275 436.112 272.677 433.411 L 270.355 430.711 207.927 430.606 C 173.592 430.547, 141.573 430.725, 136.774 431 M 311.571 459.571 C 310.185 460.958, 310 467.043, 310 511.380 C 310 553.209, 310.238 561.943, 311.421 563.559 C 312.528 565.072, 313.991 565.483, 318.057 565.424 C 325.283 565.319, 326 564.073, 326 551.614 C 326 542.119, 326.137 541.467, 328.687 538.805 C 330.165 537.262, 331.852 536.035, 332.437 536.077 C 333.022 536.119, 338.225 541.756, 344 548.604 C 359.579 567.077, 358.365 566.015, 363.790 565.900 C 370.532 565.758, 373.454 564.735, 373.794 562.400 C 373.996 561.021, 369.337 554.709, 359.061 542.441 C 350.796 532.574, 344.026 523.963, 344.017 523.307 C 344.008 522.651, 346.416 519.501, 349.368 516.307 C 352.321 513.113, 358.621 506.007, 363.368 500.515 C 371.904 490.641, 373.691 486.863, 370.418 485.607 C 368.204 484.757, 357.713 484.876, 356.486 485.765 C 355.083 486.782, 330.999 513.556, 329.281 516.008 C 328.514 517.104, 327.524 518, 327.081 518 C 326.638 518, 325.946 505.063, 325.543 489.250 C 325.108 472.178, 324.393 459.992, 323.783 459.250 C 322.284 457.427, 313.484 457.659, 311.571 459.571 M 722.571 459.571 C 721.472 460.670, 721 463.054, 721 467.500 C 721 475.484, 722.298 477, 729.137 477 C 737.189 477, 738 476.146, 738 467.665 C 738 463.348, 737.513 459.913, 736.800 459.200 C 734.991 457.391, 724.478 457.665, 722.571 459.571 M 155.243 460.157 C 154.285 461.115, 154 473.152, 154 512.721 L 154 564.043 156.470 565.168 C 160.700 567.096, 162 564.958, 162 556.078 C 162 548.152, 162.897 546, 166.200 546 C 167.800 546, 168 547.001, 168 555.021 C 168 563.645, 168.109 564.093, 170.470 565.168 C 175.296 567.367, 176 565.385, 176 549.590 L 176 535.425 180.784 530.712 C 183.416 528.121, 186.302 526, 187.198 526 C 188.094 526, 191.140 528.769, 193.968 532.153 C 196.796 535.537, 204.597 544.555, 211.305 552.192 C 221.344 563.624, 223.924 566.027, 225.899 565.789 C 227.219 565.630, 228.762 564.759, 229.329 563.853 C 230.524 561.943, 229.161 560.168, 207.716 535.707 C 194.296 520.400, 192.255 516.960, 196.150 516.210 C 197.666 515.918, 208.790 528.068, 233.334 556.822 C 237.643 561.870, 241.941 566, 242.884 566 C 245.044 566, 247 564.093, 247 561.987 C 247 561.100, 239.350 551.457, 230 540.559 C 220.650 529.660, 213 520.218, 213 519.577 C 213 518.430, 220.912 509.383, 238.326 490.614 C 244.989 483.433, 247.073 480.538, 246.826 478.801 C 246.595 477.170, 245.738 476.412, 243.882 476.196 C 241.665 475.939, 239.522 477.772, 229.882 488.173 C 208.252 511.511, 207.378 512.359, 205.641 511.693 C 202.131 510.346, 204.265 506.835, 216.512 493.808 C 226.463 483.224, 228.971 479.988, 228.762 478 C 228.568 476.153, 227.835 475.423, 225.956 475.203 C 223.803 474.952, 220.272 478.177, 202.960 496.203 C 167.156 533.485, 164.650 536, 163.312 536 C 162.492 536, 162.012 534.782, 162.032 532.750 C 162.060 529.867, 165.176 526.279, 189.606 501 C 204.755 485.325, 217.631 471.501, 218.221 470.280 C 219.460 467.717, 217.858 465, 215.110 465 C 214.205 465, 208.755 469.725, 203 475.500 C 197.245 481.275, 191.945 486, 191.223 486 C 190.202 486, 189.944 483.241, 190.061 473.576 C 190.144 466.742, 189.912 460.667, 189.547 460.076 C 188.654 458.631, 184.692 458.708, 183.200 460.200 C 182.357 461.043, 182 466.654, 182 479.045 C 182 494.869, 181.811 496.861, 180.171 498.345 C 176.299 501.849, 176.052 500.806, 175.771 479.750 L 175.500 459.500 172 459.500 L 168.500 459.500 168 485.599 C 167.488 512.301, 167.066 515, 163.393 515 C 162.283 515, 161.982 509.868, 161.766 487.250 L 161.500 459.500 158.993 459.207 C 157.614 459.046, 155.927 459.473, 155.243 460.157 M 470.200 466.200 C 469.448 466.952, 469 470.689, 469 476.200 L 469 485 464.700 485 C 459.209 485, 458 486.289, 458 492.143 C 458 497.637, 460.299 500, 465.643 500 L 468.841 500 469.173 523.750 C 469.481 545.837, 469.655 547.780, 471.664 551.500 C 474.454 556.664, 479.526 561.492, 484.218 563.449 C 488.739 565.335, 503.022 565.578, 504.800 563.800 C 506.357 562.243, 506.357 552.757, 504.800 551.200 C 504.118 550.518, 500.852 550, 497.234 550 C 484.778 550, 484 548.269, 484 520.532 L 484 500 493.800 500 C 500.089 500, 504.030 499.570, 504.800 498.800 C 506.669 496.931, 506.363 486.353, 504.418 485.607 C 503.548 485.273, 498.598 485, 493.418 485 L 484 485 484 476.571 C 484 470.242, 483.609 467.751, 482.429 466.571 C 480.543 464.686, 471.974 464.426, 470.200 466.200 M 675.750 466.080 C 674.290 466.931, 674 468.581, 674 476.050 L 674 485 669.582 485 C 662.478 485, 662 485.446, 662 492.072 C 662 498.818, 663.183 500, 669.934 500 L 674 500 674.010 522.750 C 674.019 544.470, 674.125 545.727, 676.351 550.507 C 678.946 556.078, 684.222 561.230, 689.659 563.502 C 691.811 564.401, 696.384 565, 701.099 565 C 708.143 565, 709.106 564.768, 710.430 562.748 C 711.519 561.085, 711.719 559.188, 711.194 555.498 L 710.482 550.500 703.491 550.236 C 689.549 549.711, 689 548.604, 689 521.050 L 689 500 698.066 500 C 710.123 500, 711 499.463, 711 492.072 C 711 487.653, 710.611 486.065, 709.418 485.607 C 708.548 485.273, 703.598 485, 698.418 485 L 689 485 689 476.571 C 689 470.242, 688.609 467.751, 687.429 466.571 C 685.647 464.790, 678.483 464.489, 675.750 466.080 M 396.909 486.840 C 386.065 490.419, 378.526 497.369, 373.234 508.664 C 370.775 513.914, 370.500 515.605, 370.500 525.500 C 370.500 535.775, 370.708 536.940, 373.665 543.180 C 379.679 555.875, 389.841 563.584, 403.750 566.002 C 413.690 567.729, 428.458 563.973, 432.935 558.578 C 434.899 556.211, 436 556.666, 436 559.845 C 436 563.729, 438.818 566, 443.638 566 C 451.605 566, 451.206 568.149, 451.235 525.076 C 451.256 493.582, 451.015 486.623, 449.880 485.905 C 449.121 485.424, 446.388 485.024, 443.807 485.015 C 440.080 485.003, 438.793 485.458, 437.557 487.223 C 436.701 488.445, 436 490.282, 436 491.306 C 436 492.329, 435.663 493.017, 435.250 492.833 C 434.837 492.650, 431.396 490.943, 427.602 489.040 C 421.486 485.972, 419.671 485.546, 411.602 485.287 C 404.814 485.069, 401.078 485.464, 396.909 486.840 M 537.746 486.022 C 526.837 488.777, 517.146 496.896, 511.797 507.761 C 508.672 514.108, 508.500 515.034, 508.500 525.479 C 508.500 535.716, 508.719 536.962, 511.582 543.003 C 521.587 564.115, 546.652 572.489, 566.784 561.447 C 570.241 559.551, 573.278 558, 573.534 558 C 573.790 558, 574.007 559.013, 574.015 560.250 C 574.044 564.433, 575.268 565.123, 582.091 564.802 L 588.500 564.500 588.762 526.117 C 588.950 498.617, 588.702 487.346, 587.890 486.367 C 586.468 484.655, 576.872 484.528, 575.200 486.200 C 574.540 486.860, 574 488.697, 574 490.283 C 574 491.869, 573.663 493.017, 573.250 492.833 C 572.837 492.650, 569.475 490.982, 565.777 489.126 C 559.963 486.208, 557.867 485.706, 550.277 485.413 C 545.450 485.227, 539.811 485.501, 537.746 486.022 M 613.609 486.236 C 608.313 487.637, 600.530 495.291, 599.105 500.500 C 596.649 509.479, 598.301 518.113, 603.596 523.974 C 608.967 529.920, 614.713 532.122, 626.465 532.741 C 631.984 533.031, 637.724 533.888, 639.220 534.645 C 644.483 537.306, 645.598 543.493, 641.545 547.545 C 639.121 549.970, 638.871 550, 621.045 550 C 604.333 550, 602.852 550.148, 601 552 C 598.586 554.414, 598.370 559.656, 600.557 562.777 C 602.075 564.945, 602.597 565, 621.589 565 C 642.591 565, 644.790 564.588, 650.794 559.526 C 655.996 555.140, 658.425 549.562, 658.429 542 C 658.433 534.976, 656.767 530.651, 652.136 525.658 C 647.042 520.167, 642.578 518.646, 629.759 518.033 C 618.684 517.504, 617.863 517.318, 615.309 514.763 C 611.539 510.993, 611.559 505.636, 615.356 502.370 C 618.012 500.085, 618.700 500, 634.484 500 C 653.438 500, 654 499.773, 654 492.129 C 654 489.528, 653.460 486.860, 652.800 486.200 C 651.291 484.691, 619.340 484.720, 613.609 486.236 M 723.200 486.200 C 722.309 487.091, 722 497.089, 722 525 C 722 552.911, 722.309 562.909, 723.200 563.800 C 724.757 565.357, 734.243 565.357, 735.800 563.800 C 736.691 562.909, 737 552.911, 737 525 C 737 497.089, 736.691 487.091, 735.800 486.200 C 734.243 484.643, 724.757 484.643, 723.200 486.200 M 749.240 486.160 C 748.558 486.842, 748 488.118, 748 488.996 C 748 489.874, 753.621 497.996, 760.490 507.046 C 767.360 516.096, 772.985 524.194, 772.990 525.041 C 772.996 525.889, 768.381 532.639, 762.735 540.041 C 748.787 558.330, 748 559.499, 748 561.929 C 748 563.273, 748.919 564.399, 750.511 565.004 C 753.378 566.094, 761.840 565.245, 763.837 563.667 C 764.572 563.086, 769.015 557.411, 773.710 551.056 C 778.405 544.700, 782.582 539.132, 782.991 538.682 C 783.401 538.232, 788.533 543.951, 794.397 551.392 C 806.096 566.238, 807.044 566.847, 816 565.255 C 822.956 564.019, 822.590 561.478, 813.879 550.500 C 803.517 537.441, 795 525.948, 795 525.024 C 795 524.582, 800.860 516.634, 808.022 507.360 C 823.858 486.856, 824.160 485.659, 813.616 485.201 C 805.302 484.840, 805.725 484.512, 794 500.429 C 789.325 506.775, 784.972 511.862, 784.326 511.734 C 783.681 511.605, 778.731 505.650, 773.326 498.500 L 763.500 485.500 756.990 485.210 C 752.788 485.022, 750.041 485.359, 749.240 486.160 M 847.224 486.971 C 836.677 490.766, 828.777 497.876, 824.341 507.566 C 812.685 533.026, 827.331 561.092, 854.954 566.229 C 866.472 568.371, 879.865 564.024, 889.333 555.070 C 911.784 533.836, 902.614 495.228, 873.068 486.588 C 865.639 484.416, 853.839 484.590, 847.224 486.971 M 402.994 500.874 C 395.135 503.453, 387.828 510.359, 386.002 516.935 C 382.183 530.682, 388.142 543.603, 400.920 549.280 C 407.184 552.063, 417.099 551.304, 423.503 547.551 C 428.621 544.552, 433.389 537.977, 435.132 531.515 C 438.050 520.701, 432.158 508.254, 421.529 502.780 C 417.219 500.559, 407.118 499.521, 402.994 500.874 M 539.627 501.468 C 525.606 506.466, 518.887 523.353, 525.578 536.780 C 530.430 546.517, 539.175 551.542, 549.928 550.773 C 557.382 550.240, 561.481 548.453, 566.297 543.636 C 571.518 538.416, 573.452 533.524, 573.471 525.500 C 573.484 519.642, 573.017 517.650, 570.607 513.292 C 564.676 502.563, 551.095 497.380, 539.627 501.468 M 851 502.015 C 845.435 504.610, 840.494 509.245, 837.692 514.500 C 834.690 520.130, 834.713 530.895, 837.738 536.628 C 840.557 541.970, 847.820 548.330, 852.807 549.824 C 858.549 551.544, 866.891 551.234, 871.500 549.129 C 879.555 545.450, 887 534.100, 887 525.500 C 887 517.128, 880.438 506.797, 872.568 502.778 C 866.530 499.694, 856.722 499.347, 851 502.015 M 184 537 C 182.223 538.777, 182 540.333, 182 550.977 C 182 562.655, 182.062 562.995, 184.505 564.595 C 186.524 565.918, 187.300 565.996, 188.505 564.996 C 190.448 563.384, 190.706 538.106, 188.800 536.200 C 187.146 534.546, 186.316 534.684, 184 537" stroke="none" fill="#f2f0eb" fill-rule="evenodd"/><path d="M 311.571 459.571 C 310.185 460.958, 310 467.043, 310 511.380 C 310 553.209, 310.238 561.943, 311.421 563.559 C 312.528 565.072, 313.991 565.483, 318.057 565.424 C 325.283 565.319, 326 564.073, 326 551.614 C 326 542.119, 326.137 541.467, 328.687 538.805 C 330.165 537.262, 331.852 536.035, 332.437 536.077 C 333.022 536.119, 338.225 541.756, 344 548.604 C 359.579 567.077, 358.365 566.015, 363.790 565.900 C 370.532 565.758, 373.454 564.735, 373.794 562.400 C 373.996 561.021, 369.337 554.709, 359.061 542.441 C 350.796 532.574, 344.026 523.954, 344.017 523.287 C 344.008 522.619, 346.615 519.244, 349.811 515.787 C 358.644 506.230, 371.038 491.798, 372.074 489.862 C 373.716 486.795, 370.604 484.998, 363.679 485.015 C 360.280 485.024, 357.044 485.361, 356.486 485.765 C 354.960 486.872, 330.621 513.975, 329.700 515.594 C 329.260 516.367, 328.308 517, 327.585 517 C 326.545 517, 326.115 511.067, 325.536 488.750 C 325.105 472.086, 324.384 459.987, 323.780 459.250 C 322.286 457.427, 313.484 457.659, 311.571 459.571 M 722.571 459.571 C 721.472 460.670, 721 463.054, 721 467.500 C 721 475.484, 722.298 477, 729.137 477 C 737.189 477, 738 476.146, 738 467.665 C 738 463.348, 737.513 459.913, 736.800 459.200 C 734.991 457.391, 724.478 457.665, 722.571 459.571 M 470.200 466.200 C 469.448 466.952, 469 470.689, 469 476.200 L 469 485 464.700 485 C 459.209 485, 458 486.289, 458 492.143 C 458 497.637, 460.299 500, 465.643 500 L 468.841 500 469.173 523.750 C 469.481 545.837, 469.655 547.780, 471.664 551.500 C 474.454 556.664, 479.526 561.492, 484.218 563.449 C 488.739 565.335, 503.022 565.578, 504.800 563.800 C 506.357 562.243, 506.357 552.757, 504.800 551.200 C 504.118 550.518, 500.852 550, 497.234 550 C 484.778 550, 484 548.269, 484 520.532 L 484 500 493.800 500 C 500.089 500, 504.030 499.570, 504.800 498.800 C 506.669 496.931, 506.363 486.353, 504.418 485.607 C 503.548 485.273, 498.598 485, 493.418 485 L 484 485 484 476.571 C 484 470.242, 483.609 467.751, 482.429 466.571 C 480.543 464.686, 471.974 464.426, 470.200 466.200 M 675.750 466.080 C 674.290 466.931, 674 468.581, 674 476.050 L 674 485 669.582 485 C 662.478 485, 662 485.446, 662 492.072 C 662 498.818, 663.183 500, 669.934 500 L 674 500 674.010 522.750 C 674.019 544.470, 674.125 545.727, 676.351 550.507 C 678.946 556.078, 684.222 561.230, 689.659 563.502 C 691.811 564.401, 696.384 565, 701.099 565 C 708.143 565, 709.106 564.768, 710.430 562.748 C 711.519 561.085, 711.719 559.188, 711.194 555.498 L 710.482 550.500 703.491 550.236 C 689.549 549.711, 689 548.604, 689 521.050 L 689 500 698.066 500 C 710.123 500, 711 499.463, 711 492.072 C 711 487.653, 710.611 486.065, 709.418 485.607 C 708.548 485.273, 703.598 485, 698.418 485 L 689 485 689 476.571 C 689 470.242, 688.609 467.751, 687.429 466.571 C 685.647 464.790, 678.483 464.489, 675.750 466.080 M 396.909 486.840 C 386.065 490.419, 378.526 497.369, 373.234 508.664 C 370.775 513.914, 370.500 515.605, 370.500 525.500 C 370.500 535.775, 370.708 536.940, 373.665 543.180 C 375.405 546.853, 378.725 551.916, 381.042 554.430 C 389.151 563.227, 404.147 568.149, 416.187 565.966 C 422.252 564.866, 431.242 561.035, 432.488 559.019 C 433.682 557.087, 436 557.962, 436 560.345 C 436 563.758, 439.029 566, 443.638 566 C 451.605 566, 451.206 568.149, 451.235 525.076 C 451.255 493.594, 451.014 486.619, 449.880 485.879 C 449.121 485.385, 446.250 485.097, 443.500 485.240 C 438.947 485.477, 438.366 485.789, 437 488.728 C 436.175 490.504, 435.105 491.966, 434.623 491.978 C 434.140 491.990, 430.811 490.555, 427.224 488.790 C 421.574 486.008, 419.488 485.540, 411.602 485.287 C 404.814 485.069, 401.078 485.464, 396.909 486.840 M 537.746 486.022 C 526.837 488.777, 517.146 496.896, 511.797 507.761 C 508.672 514.108, 508.500 515.034, 508.500 525.479 C 508.500 535.716, 508.719 536.962, 511.582 543.003 C 521.367 563.651, 546.559 572.430, 565.925 561.941 C 572.708 558.267, 573.605 558.273, 574.350 562 C 574.942 564.962, 575.032 565, 581.416 565 C 584.972 565, 588.154 564.560, 588.486 564.023 C 589.635 562.163, 589.032 487.744, 587.856 486.327 C 586.466 484.652, 576.844 484.556, 575.200 486.200 C 574.540 486.860, 574 488.435, 574 489.700 C 574 492.707, 572.983 492.609, 565.400 488.876 C 560.050 486.242, 557.676 485.699, 550.277 485.413 C 545.450 485.227, 539.811 485.501, 537.746 486.022 M 613.609 486.236 C 608.313 487.637, 600.530 495.291, 599.105 500.500 C 596.649 509.479, 598.301 518.113, 603.596 523.974 C 608.967 529.920, 614.713 532.122, 626.465 532.741 C 631.984 533.031, 637.724 533.888, 639.220 534.645 C 644.483 537.306, 645.598 543.493, 641.545 547.545 C 639.121 549.970, 638.871 550, 621.045 550 C 604.333 550, 602.852 550.148, 601 552 C 598.586 554.414, 598.370 559.656, 600.557 562.777 C 602.075 564.945, 602.597 565, 621.589 565 C 642.591 565, 644.790 564.588, 650.794 559.526 C 655.996 555.140, 658.425 549.562, 658.429 542 C 658.433 534.976, 656.767 530.651, 652.136 525.658 C 647.042 520.167, 642.578 518.646, 629.759 518.033 C 618.684 517.504, 617.863 517.318, 615.309 514.763 C 611.539 510.993, 611.559 505.636, 615.356 502.370 C 618.012 500.085, 618.700 500, 634.484 500 C 653.438 500, 654 499.773, 654 492.129 C 654 489.528, 653.460 486.860, 652.800 486.200 C 651.291 484.691, 619.340 484.720, 613.609 486.236 M 723.200 486.200 C 722.309 487.091, 722 497.089, 722 525 C 722 552.911, 722.309 562.909, 723.200 563.800 C 724.757 565.357, 734.243 565.357, 735.800 563.800 C 736.691 562.909, 737 552.911, 737 525 C 737 497.089, 736.691 487.091, 735.800 486.200 C 734.243 484.643, 724.757 484.643, 723.200 486.200 M 749.240 486.160 C 748.558 486.842, 748 488.118, 748 488.996 C 748 489.874, 753.621 497.996, 760.490 507.046 C 767.360 516.096, 772.985 524.194, 772.990 525.041 C 772.996 525.889, 768.226 532.836, 762.390 540.479 C 756.555 548.122, 750.630 556.113, 749.225 558.237 C 746.817 561.875, 746.768 562.196, 748.374 563.799 C 750.623 566.043, 761.462 565.797, 764.063 563.443 C 765.033 562.565, 769.579 556.717, 774.164 550.447 C 778.749 544.177, 782.995 539.036, 783.599 539.023 C 784.203 539.011, 789.137 544.673, 794.563 551.606 C 799.989 558.540, 805.543 564.636, 806.906 565.154 C 810.049 566.349, 819.589 565.200, 821.039 563.452 C 822.531 561.655, 822.149 561.052, 808.078 543.027 C 800.348 533.124, 796 526.695, 796 525.170 C 796 523.678, 799.677 518.058, 805.831 510.143 C 821.407 490.111, 822.097 489.050, 820.939 486.886 C 820.101 485.319, 818.768 485, 813.068 485 C 805.089 485, 805.654 484.528, 793 501.754 C 788.875 507.370, 784.972 511.860, 784.326 511.732 C 783.681 511.604, 778.731 505.650, 773.326 498.500 L 763.500 485.500 756.990 485.210 C 752.788 485.022, 750.041 485.359, 749.240 486.160 M 847.224 486.971 C 836.677 490.766, 828.777 497.876, 824.341 507.566 C 812.685 533.026, 827.331 561.092, 854.954 566.229 C 866.472 568.371, 879.865 564.024, 889.333 555.070 C 911.784 533.836, 902.614 495.228, 873.068 486.588 C 865.639 484.416, 853.839 484.590, 847.224 486.971 M 402.994 500.874 C 395.135 503.453, 387.828 510.359, 386.002 516.935 C 382.183 530.682, 388.142 543.603, 400.920 549.280 C 407.184 552.063, 417.099 551.304, 423.503 547.551 C 428.621 544.552, 433.389 537.977, 435.132 531.515 C 438.050 520.701, 432.158 508.254, 421.529 502.780 C 417.219 500.559, 407.118 499.521, 402.994 500.874 M 539.627 501.468 C 525.606 506.466, 518.887 523.353, 525.578 536.780 C 530.430 546.517, 539.175 551.542, 549.928 550.773 C 557.382 550.240, 561.481 548.453, 566.297 543.636 C 571.518 538.416, 573.452 533.524, 573.471 525.500 C 573.484 519.642, 573.017 517.650, 570.607 513.292 C 564.676 502.563, 551.095 497.380, 539.627 501.468 M 851 502.015 C 845.435 504.610, 840.494 509.245, 837.692 514.500 C 834.690 520.130, 834.713 530.895, 837.738 536.628 C 840.557 541.970, 847.820 548.330, 852.807 549.824 C 858.549 551.544, 866.891 551.234, 871.500 549.129 C 879.555 545.450, 887 534.100, 887 525.500 C 887 517.128, 880.438 506.797, 872.568 502.778 C 866.530 499.694, 856.722 499.347, 851 502.015" stroke="none" fill="#1a2b42" fill-rule="evenodd"/><path d="M 136.774 431 C 124.779 431.687, 124.389 432.104, 123.504 445.152 C 123.118 450.843, 122.959 485.577, 123.151 522.337 L 123.500 589.174 126.306 591.587 L 129.112 594 199.133 594 L 269.154 594 272.077 591.077 L 275 588.154 275 512.133 L 275 436.112 272.665 433.397 L 270.331 430.683 207.915 430.592 C 173.587 430.541, 141.573 430.725, 136.774 431 M 155.243 460.157 C 154.285 461.115, 154 473.152, 154 512.721 L 154 564.043 156.470 565.168 C 160.718 567.104, 162 564.965, 162 555.946 C 162 548.410, 162.105 548.061, 165 546 L 168 543.864 168 553.953 C 168 563.713, 168.081 564.080, 170.470 565.168 C 175.296 567.367, 176 565.385, 176 549.593 L 176 535.432 181.557 529.966 L 187.113 524.500 190.307 528.059 C 192.063 530.017, 200.245 539.374, 208.490 548.853 C 221.003 563.239, 223.878 566.038, 225.889 565.793 C 230.707 565.207, 230.729 562.657, 225.966 556.853 C 219.136 548.530, 202.120 529.016, 197.097 523.745 L 192.565 518.990 194.632 516.923 L 196.699 514.856 207.661 527.178 C 213.690 533.955, 221.258 542.650, 224.480 546.500 C 241.059 566.315, 242.795 567.805, 245.800 564.800 C 246.460 564.140, 247 562.876, 247 561.991 C 247 561.106, 239.147 551.223, 229.548 540.028 L 212.097 519.674 214.668 516.587 C 216.082 514.889, 223.823 506.374, 231.870 497.665 C 243.088 485.522, 246.500 481.208, 246.500 479.165 C 246.500 477.144, 245.943 476.421, 244.195 476.173 C 241.196 475.748, 241.344 475.612, 222.726 495.801 C 207.395 512.426, 206.697 513.036, 204.886 511.396 C 203.848 510.458, 203 509.362, 203 508.962 C 203 508.562, 208.854 501.994, 216.008 494.367 C 226.358 483.334, 228.964 479.989, 228.758 478 C 228.568 476.158, 227.836 475.422, 225.978 475.206 C 223.226 474.884, 224.865 473.300, 184.549 515.250 C 173.053 527.212, 163.276 537, 162.823 537 C 162.370 537, 162.014 535.313, 162.032 533.250 C 162.062 529.711, 163.612 527.898, 189.606 501 C 204.755 485.325, 217.631 471.501, 218.221 470.280 C 219.459 467.717, 217.858 465, 215.111 465 C 214.206 465, 208.531 469.950, 202.500 476 C 196.469 482.050, 191.202 487, 190.795 487 C 190.389 487, 189.931 480.813, 189.778 473.250 C 189.505 459.749, 189.458 459.494, 187.195 459.173 C 182.293 458.478, 181.911 459.931, 182.048 478.748 C 182.170 495.568, 182.095 496.270, 179.913 498.593 C 178.669 499.917, 177.289 501, 176.846 501 C 176.403 501, 175.919 491.663, 175.770 480.250 L 175.500 459.500 172 459.500 L 168.500 459.500 168.300 485 L 168.100 510.500 165.300 514 L 162.500 517.500 162 488.500 L 161.500 459.500 158.993 459.207 C 157.614 459.046, 155.927 459.473, 155.243 460.157 M 183.067 537.874 C 182.480 538.971, 182 545.018, 182 551.312 C 182 563.651, 182.697 565.464, 187.195 564.827 C 189.476 564.503, 189.500 564.356, 189.500 550.500 L 189.500 536.500 186.817 536.190 C 184.951 535.974, 183.810 536.487, 183.067 537.874" stroke="none" fill="#b49859" fill-rule="evenodd"/></svg>