<svg xmlns="http://www.w3.org/2000/svg" viewBox="119 426 787 172" version="1.1"><path d="M 129.179 431.142 C 122.843 432.958, 123 430.893, 123 512.518 C 123 592.748, 122.868 590.859, 128.613 593.043 C 130.127 593.619, 158.428 594, 199.615 594 C 273.545 594, 272.953 594.041, 274.359 588.790 C 274.697 587.531, 274.979 552.663, 274.986 511.306 L 275 436.112 272.587 433.306 L 270.174 430.500 201.337 430.345 C 160.262 430.253, 131.161 430.574, 129.179 431.142 M 184.155 459.604 C 182.086 461.053, 182 461.823, 182 478.834 C 182 493.254, 181.710 496.969, 180.443 498.777 C 179.587 500, 178.246 501, 177.464 501 C 176.287 501, 175.994 497.402, 175.770 480.250 L 175.500 459.500 172.609 459.170 C 170.966 458.982, 169.353 459.414, 168.874 460.170 C 168.410 460.901, 168.024 472.793, 168.015 486.595 C 168.001 509.625, 167.850 511.826, 166.171 513.345 C 162.182 516.955, 162.042 516.125, 161.766 487.250 L 161.500 459.500 158 459.500 L 154.500 459.500 154.241 511.710 C 153.986 563.108, 154.013 563.937, 155.991 564.995 C 157.420 565.760, 158.578 565.761, 160 565 C 161.720 564.079, 162 562.906, 162 556.620 C 162 550.808, 162.375 548.971, 163.829 547.655 C 167.335 544.482, 168 545.563, 168 554.429 C 168 562.906, 169.169 566, 172.371 566 C 175.437 566, 176 563.505, 176 549.908 L 176 536.216 180.593 531.108 C 185.773 525.346, 187.935 524.830, 190.932 528.641 C 192.075 530.094, 199.870 539.083, 208.255 548.617 C 220.700 562.769, 223.985 565.957, 226.143 565.976 C 229.538 566.007, 230.531 563.459, 228.395 560.199 C 227.487 558.814, 221.964 552.227, 216.122 545.562 C 195.788 522.364, 194 520.183, 194 518.565 C 194 517.670, 194.755 516.648, 195.677 516.294 C 197.662 515.532, 199.962 517.940, 224.193 546.138 C 233.580 557.062, 241.840 566, 242.548 566 C 245.290 566, 247 564.696, 247 562.605 C 247 561.230, 240.721 553.076, 230 540.529 C 220.650 529.587, 213.020 519.929, 213.044 519.067 C 213.068 518.205, 220.724 509.400, 230.056 499.500 C 243.753 484.970, 246.974 481.018, 246.762 479 C 246.570 477.166, 245.834 476.422, 243.998 476.208 C 241.900 475.962, 238.767 478.829, 224.560 493.995 C 215.087 504.108, 206.983 511.948, 206.169 511.787 C 205.369 511.629, 204.248 510.759, 203.678 509.854 C 202.826 508.502, 204.948 505.767, 215.571 494.526 C 222.682 487.001, 228.823 480.270, 229.218 479.569 C 230.440 477.396, 227.622 474.625, 224.906 475.328 C 223.527 475.686, 210.187 488.775, 193.669 505.976 C 177.812 522.489, 164.173 536, 163.359 536 C 162.281 536, 161.963 535.072, 162.190 532.578 C 162.458 529.618, 166.213 525.289, 190 500.516 C 205.125 484.765, 217.901 471.015, 218.392 469.962 C 219.439 467.717, 217.641 465, 215.110 465 C 214.205 465, 208.755 469.725, 203 475.500 C 197.245 481.275, 191.965 486, 191.268 486 C 190.309 486, 190 482.838, 190 473.035 C 190 461.456, 189.803 459.965, 188.155 459.083 C 186.826 458.372, 185.705 458.518, 184.155 459.604 M 311.620 459.523 C 310.169 460.973, 310 466.449, 310 511.871 C 310 549.994, 310.298 562.898, 311.200 563.800 C 311.860 564.460, 314.994 565, 318.165 565 C 325.504 565, 326 564.138, 326 551.370 C 326 542.140, 326.146 541.457, 328.687 538.805 C 330.165 537.262, 331.706 536, 332.112 536 C 332.517 536, 338.518 542.507, 345.447 550.459 C 359.220 566.266, 360.421 567.020, 369.114 565.308 C 376.248 563.903, 375.613 562.249, 361.505 545.464 C 354.588 537.234, 347.577 528.839, 345.926 526.809 L 342.925 523.117 349.316 516.309 C 364.709 499.911, 372.097 490.616, 371.795 488.027 C 371.514 485.620, 371.168 485.489, 364.500 485.258 C 360.071 485.105, 356.941 485.473, 355.979 486.258 C 355.143 486.941, 350.452 492, 345.555 497.500 C 333.902 510.589, 326.993 518, 326.443 518 C 326.200 518, 325.993 505.738, 325.985 490.750 C 325.968 458.646, 325.968 458.647, 318.345 458.202 C 314.667 457.987, 312.786 458.357, 311.620 459.523 M 722.571 459.571 C 721.472 460.671, 721 463.055, 721 467.515 C 721 475.140, 722.771 477, 730.031 477 C 737.025 477, 738.455 475.435, 738.479 467.752 C 738.507 459.252, 737.411 458, 729.949 458 C 726.004 458, 723.639 458.504, 722.571 459.571 M 470.571 466.571 C 469.391 467.751, 469 470.242, 469 476.571 L 469 485 464.700 485 C 459.209 485, 458 486.289, 458 492.143 C 458 497.641, 460.299 500, 465.656 500 L 468.867 500 469.184 523.250 C 469.471 544.399, 469.690 546.907, 471.603 551 C 476.078 560.574, 482.008 564.189, 494.250 564.805 C 505.030 565.347, 506 564.736, 506 557.413 C 506 550.971, 504.756 550, 496.500 550 C 484.873 550, 484 547.942, 484 520.532 L 484 500 493.418 500 C 498.598 500, 503.548 499.727, 504.418 499.393 C 505.628 498.929, 506 497.310, 506 492.500 C 506 487.690, 505.628 486.071, 504.418 485.607 C 503.548 485.273, 498.598 485, 493.418 485 L 484 485 484 476.200 C 484 470.689, 483.552 466.952, 482.800 466.200 C 481.026 464.426, 472.457 464.686, 470.571 466.571 M 675.750 466.080 C 674.290 466.931, 674 468.581, 674 476.050 L 674 485 669.200 485 C 666.560 485, 663.860 485.540, 663.200 486.200 C 661.426 487.974, 661.686 496.543, 663.571 498.429 C 664.520 499.377, 666.873 500, 669.506 500 L 673.869 500 674.185 523.750 C 674.478 545.863, 674.649 547.776, 676.662 551.500 C 679.673 557.069, 684.723 561.638, 689.879 563.457 C 694.502 565.088, 707.601 565.539, 709.802 564.144 C 710.706 563.570, 711.011 561.360, 710.802 556.909 L 710.500 550.500 703 549.992 C 698.875 549.712, 694.535 548.934, 693.355 548.263 C 689.679 546.171, 689 541.819, 689 520.351 L 689 500 698.309 500 C 710.308 500, 711.213 499.383, 710.807 491.472 L 710.500 485.500 699.750 485.216 L 689 484.932 689 476.166 C 689 470.681, 688.551 466.951, 687.800 466.200 C 686.346 464.746, 678.181 464.664, 675.750 466.080 M 397.487 486.742 C 385.657 490.967, 378.102 497.954, 372.879 509.500 C 370.986 513.683, 370.607 516.297, 370.558 525.500 C 370.503 535.857, 370.687 536.894, 373.693 543.241 C 381.479 559.678, 399.049 569.074, 416.187 565.966 C 422.252 564.866, 431.242 561.035, 432.488 559.019 C 433.710 557.042, 436 557.971, 436 560.443 C 436 563.725, 439.508 566, 444.568 566 C 452.221 566, 452 567.214, 452 525.243 C 452 483.065, 452.385 485, 443.985 485 C 440.084 485, 438.803 485.443, 437.557 487.223 C 436.701 488.445, 436 490.282, 436 491.306 C 436 492.329, 435.663 492.996, 435.250 492.788 C 421.662 485.936, 420.520 485.574, 411.500 485.262 C 404.759 485.029, 401.242 485.401, 397.487 486.742 M 536 486.882 C 532.975 487.859, 529.144 489.366, 527.486 490.232 C 522.704 492.731, 514.137 502.472, 511.201 508.747 C 508.792 513.896, 508.509 515.656, 508.505 525.500 C 508.500 535.355, 508.780 537.097, 511.188 542.235 C 516.341 553.231, 523.914 560.363, 534.170 563.881 C 545.979 567.930, 554.591 567.391, 565.820 561.898 C 572.468 558.645, 572.643 558.651, 574.412 562.199 C 577.016 567.423, 587.662 566.908, 589.225 561.482 C 590.429 557.299, 589.107 487.834, 587.792 486.250 C 586.463 484.648, 576.791 484.609, 575.200 486.200 C 574.540 486.860, 574 488.660, 574 490.200 C 574 491.740, 573.743 493, 573.428 493 C 573.114 493, 570.870 491.836, 568.442 490.413 C 559.167 484.977, 546.257 483.572, 536 486.882 M 614.994 485.934 C 603.955 489.292, 598.019 497.450, 598.006 509.282 C 597.999 515.178, 599.732 519.487, 604.125 524.490 C 609.112 530.170, 614.373 532.106, 625.830 532.480 C 631.149 532.653, 636.692 533.263, 638.149 533.835 C 643.995 536.128, 645.822 543.269, 641.634 547.457 C 638.559 550.532, 631.592 551.408, 615.231 550.778 C 600.716 550.219, 599 550.966, 599 557.845 C 599 564.705, 599.964 565.003, 622.079 564.978 C 644.332 564.953, 647.047 564.268, 653.145 557.143 C 663.632 544.892, 659.544 527.511, 644.500 520.387 C 640.249 518.374, 637.949 518.018, 629.150 518.010 L 618.800 518 615.279 514.479 C 612.256 511.456, 611.846 510.502, 612.378 507.729 C 612.719 505.953, 614.148 503.488, 615.555 502.250 C 617.979 500.117, 618.943 500, 634.122 500 C 643.245 500, 650.963 499.555, 652.066 498.965 C 653.613 498.136, 654 496.845, 654 492.500 C 654 488.155, 653.613 486.864, 652.066 486.035 C 649.843 484.845, 618.850 484.761, 614.994 485.934 M 723.200 486.200 C 721.433 487.967, 721.481 562.346, 723.250 563.739 C 725.307 565.358, 731.962 565.974, 734.567 564.787 L 737 563.679 737 525.539 C 737 497.209, 736.691 487.091, 735.800 486.200 C 734.243 484.643, 724.757 484.643, 723.200 486.200 M 749.250 485.641 C 746.318 486.874, 748.745 491.441, 761.033 507.817 L 774.027 525.135 770.934 529.317 C 769.232 531.618, 763.368 539.350, 757.902 546.500 C 750.540 556.131, 748.034 560.148, 748.232 562 C 748.487 564.378, 748.850 564.514, 755.661 564.792 L 762.822 565.084 767.161 559.673 C 769.547 556.697, 774.112 550.828, 777.305 546.631 C 780.497 542.434, 783.460 539, 783.890 539 C 784.319 539, 789.304 544.831, 794.967 551.959 C 804.854 564.401, 805.441 564.944, 809.703 565.583 C 812.145 565.949, 815.573 565.841, 817.321 565.342 C 822.761 563.792, 822.064 560.768, 813.901 550.500 C 803.628 537.577, 795 525.954, 795 525.036 C 795 524.234, 810.048 504.420, 817.220 495.779 C 820.105 492.302, 821.054 490.325, 820.819 488.279 C 820.509 485.576, 820.312 485.492, 813.660 485.202 C 809.366 485.015, 806.278 485.354, 805.364 486.113 C 804.563 486.777, 799.583 493.103, 794.297 500.170 C 789.011 507.237, 784.419 512.761, 784.093 512.447 C 783.767 512.132, 779 505.941, 773.500 498.687 L 763.500 485.500 757 485.308 C 753.425 485.202, 749.938 485.352, 749.250 485.641 M 847.500 486.802 C 836.647 490.572, 827.044 499.920, 823.046 510.607 C 813.690 535.612, 828.545 561.497, 854.917 566.142 C 871.938 569.140, 891.089 558.715, 898.804 542.253 C 901.205 537.129, 901.497 535.352, 901.468 526 C 901.429 512.926, 899.193 506.560, 891.796 498.467 C 885.919 492.037, 880.163 488.395, 872.764 486.425 C 865.512 484.495, 853.632 484.672, 847.500 486.802 M 402.994 500.874 C 391.698 504.581, 385.065 513.695, 385.022 525.571 C 384.967 540.873, 397.516 552.119, 413.088 550.721 C 419.627 550.134, 423.694 548.239, 428.297 543.636 C 433.601 538.333, 435.505 533.513, 435.464 525.500 C 435.412 515.327, 430.574 507.438, 421.529 502.780 C 417.219 500.559, 407.118 499.521, 402.994 500.874 M 539.591 501.512 C 530.219 505.093, 524.172 512.973, 523.294 522.750 C 522.273 534.119, 527.536 543.669, 537.514 548.551 C 542.414 550.948, 543.883 551.206, 550.115 550.760 C 556.248 550.321, 557.903 549.749, 562.790 546.377 C 583.077 532.384, 574.348 501.861, 549.636 500.385 C 545.767 500.154, 542.056 500.570, 539.591 501.512 M 853.994 500.934 C 847.085 503.036, 840.856 508.324, 837.425 515 C 834.745 520.216, 834.902 531.278, 837.732 536.628 C 840.560 541.973, 847.823 548.331, 852.807 549.824 C 858.266 551.460, 866.364 551.292, 870.782 549.451 C 878.600 546.194, 885.197 537.539, 886.504 528.823 C 889.107 511.466, 870.852 495.806, 853.994 500.934 M 183.597 538.166 C 182.367 539.921, 182 543, 182 551.568 C 182 561.259, 182.247 562.913, 183.917 564.425 C 185.457 565.818, 186.249 565.937, 187.945 565.030 C 189.957 563.952, 190.043 563.261, 189.778 550.200 C 189.511 537.037, 189.416 536.488, 187.347 536.193 C 185.997 536.001, 184.597 536.737, 183.597 538.166" stroke="none" fill="#ffffff" fill-rule="evenodd"/><path d="M 129.179 431.129 C 122.843 432.970, 123 430.900, 123 512.518 C 123 592.748, 122.868 590.859, 128.613 593.043 C 130.127 593.619, 158.428 594, 199.615 594 C 273.545 594, 272.953 594.041, 274.359 588.790 C 274.697 587.531, 274.979 552.663, 274.986 511.306 L 275 436.112 272.587 433.306 L 270.174 430.500 201.337 430.332 C 159.552 430.230, 131.195 430.544, 129.179 431.129 M 314.585 458.068 C 312.982 458.534, 311.302 459.497, 310.851 460.208 C 309.457 462.405, 309.794 562.394, 311.200 563.800 C 311.860 564.460, 314.994 565, 318.165 565 C 325.514 565, 326 564.147, 326 551.240 C 326 542.194, 326.198 541.163, 328.314 539.174 C 329.587 537.978, 331.334 537, 332.196 537 C 333.058 537, 339.221 543.280, 345.892 550.957 C 359.158 566.223, 360.445 567.018, 369.106 565.306 C 372.061 564.721, 373.595 563.865, 373.825 562.672 C 374.228 560.576, 373.077 559.027, 356.628 539.538 C 349.683 531.308, 344 523.952, 344 523.190 C 344 522.429, 346.828 518.812, 350.283 515.153 C 355.544 509.583, 366.317 497.391, 371.773 490.833 C 372.838 489.552, 372.901 488.684, 372.045 487.083 C 371.081 485.283, 369.998 485, 364.069 485 L 357.208 485 352.210 490.250 C 349.462 493.137, 343.200 499.999, 338.296 505.498 C 333.392 510.997, 328.640 515.638, 327.735 515.812 C 326.248 516.099, 326.063 513.510, 325.796 488.599 C 325.476 458.874, 325.474 458.859, 320 457.735 C 318.625 457.452, 316.188 457.602, 314.585 458.068 M 722.571 459.571 C 721.472 460.671, 721 463.055, 721 467.515 C 721 475.140, 722.771 477, 730.031 477 C 737.025 477, 738.455 475.435, 738.479 467.752 C 738.507 459.252, 737.411 458, 729.949 458 C 726.004 458, 723.639 458.504, 722.571 459.571 M 154.483 460.186 C 154.206 460.909, 154.097 484.675, 154.240 513 L 154.500 564.500 158 564.500 L 161.500 564.500 161.799 557.013 C 162.038 551.017, 162.521 549.075, 164.223 547.263 C 165.392 546.018, 166.720 545, 167.174 545 C 167.628 545, 168 549.018, 168 553.929 C 168 562.923, 169.114 566, 172.371 566 C 175.440 566, 176 563.506, 176 549.847 L 176 536.093 181.509 530.297 L 187.017 524.500 190.572 528.500 C 192.527 530.700, 200.736 540.028, 208.813 549.228 C 221.069 563.187, 223.955 565.960, 226.250 565.978 C 228.606 565.997, 229 565.595, 229 563.175 C 229 560.997, 226.306 557.267, 217.250 546.906 C 191.440 517.377, 192.671 519.021, 194.694 516.785 C 196.465 514.829, 196.559 514.876, 201.539 520.227 C 204.317 523.210, 214.390 534.730, 223.925 545.826 C 233.459 556.922, 241.840 566, 242.548 566 C 245.290 566, 247 564.696, 247 562.606 C 247 561.230, 240.556 552.888, 229.507 539.963 C 219.886 528.708, 212.123 519.225, 212.257 518.888 C 212.391 518.551, 220.150 510.092, 229.500 500.089 C 242.815 485.844, 246.500 481.316, 246.500 479.201 C 246.500 477.064, 245.978 476.439, 244 476.209 C 241.903 475.965, 238.696 478.908, 224.099 494.478 C 207.506 512.176, 206.613 512.959, 204.849 511.364 C 203.832 510.443, 203 509.271, 203 508.759 C 203 508.247, 208.738 501.755, 215.750 494.332 C 225.526 483.985, 228.500 480.214, 228.500 478.168 C 228.500 476.158, 227.942 475.421, 226.236 475.179 C 223.579 474.801, 223.246 475.119, 188.503 511.250 C 174.885 525.413, 163.350 537, 162.871 537 C 162.392 537, 162.013 535.313, 162.028 533.250 C 162.055 529.710, 163.596 527.906, 189.586 501 C 204.728 485.325, 217.606 471.501, 218.205 470.280 C 219.462 467.717, 217.870 465, 215.111 465 C 214.206 465, 208.531 469.950, 202.500 476 C 196.469 482.050, 191.202 487, 190.795 487 C 190.389 487, 189.931 480.813, 189.778 473.250 C 189.505 459.749, 189.458 459.494, 187.195 459.173 C 182.370 458.489, 182 459.900, 182 478.988 C 182 495.423, 181.847 496.924, 179.927 499.365 C 178.788 500.814, 177.446 502, 176.947 502 C 176.441 502, 175.920 492.608, 175.770 480.750 L 175.500 459.500 172.609 459.170 C 170.966 458.982, 169.353 459.414, 168.874 460.170 C 168.410 460.901, 168.024 472.784, 168.015 486.576 C 168 511.485, 167.985 511.666, 165.686 513.826 C 164.413 515.022, 163.070 516, 162.701 516 C 162.333 516, 161.912 503.288, 161.766 487.750 L 161.500 459.500 158.243 459.186 C 156.230 458.992, 154.794 459.374, 154.483 460.186 M 470.571 466.571 C 469.391 467.751, 469 470.242, 469 476.571 L 469 485 464.700 485 C 459.209 485, 458 486.289, 458 492.143 C 458 497.641, 460.299 500, 465.656 500 L 468.867 500 469.184 523.250 C 469.471 544.399, 469.690 546.907, 471.603 551 C 476.078 560.574, 482.008 564.189, 494.250 564.805 C 505.030 565.347, 506 564.736, 506 557.413 C 506 550.971, 504.756 550, 496.500 550 C 484.873 550, 484 547.942, 484 520.532 L 484 500 493.418 500 C 498.598 500, 503.548 499.727, 504.418 499.393 C 505.628 498.929, 506 497.310, 506 492.500 C 506 487.690, 505.628 486.071, 504.418 485.607 C 503.548 485.273, 498.598 485, 493.418 485 L 484 485 484 476.200 C 484 470.689, 483.552 466.952, 482.800 466.200 C 481.026 464.426, 472.457 464.686, 470.571 466.571 M 675.750 466.080 C 674.290 466.931, 674 468.581, 674 476.050 L 674 485 669.200 485 C 666.560 485, 663.860 485.540, 663.200 486.200 C 661.426 487.974, 661.686 496.543, 663.571 498.429 C 664.520 499.377, 666.873 500, 669.506 500 L 673.869 500 674.185 523.750 C 674.478 545.863, 674.649 547.776, 676.662 551.500 C 679.673 557.069, 684.723 561.638, 689.879 563.457 C 694.502 565.088, 707.601 565.539, 709.802 564.144 C 710.706 563.570, 711.011 561.360, 710.802 556.909 L 710.500 550.500 703 549.992 C 698.875 549.712, 694.535 548.934, 693.355 548.263 C 689.679 546.171, 689 541.819, 689 520.351 L 689 500 698.309 500 C 709.394 500, 711.100 499.124, 711.398 493.281 C 711.808 485.254, 711.444 485, 699.532 485 L 689 485 689 476.200 C 689 470.689, 688.552 466.952, 687.800 466.200 C 686.346 464.746, 678.181 464.664, 675.750 466.080 M 397.487 486.742 C 385.657 490.967, 378.102 497.954, 372.879 509.500 C 370.986 513.683, 370.607 516.297, 370.558 525.500 C 370.503 535.857, 370.687 536.894, 373.693 543.241 C 381.479 559.678, 399.049 569.074, 416.187 565.966 C 422.252 564.866, 431.242 561.035, 432.488 559.019 C 433.710 557.042, 436 557.971, 436 560.443 C 436 563.725, 439.508 566, 444.568 566 C 452.221 566, 452 567.214, 452 525.243 C 452 482.711, 452.412 484.690, 443.663 485.202 C 439.141 485.466, 438.393 485.838, 437.033 488.500 C 436.190 490.150, 435.393 491.682, 435.263 491.904 C 435.132 492.126, 431.757 490.796, 427.763 488.949 C 421.538 486.070, 419.214 485.544, 411.500 485.270 C 404.745 485.031, 401.250 485.398, 397.487 486.742 M 536 486.882 C 532.975 487.859, 529.144 489.366, 527.486 490.232 C 522.704 492.731, 514.137 502.472, 511.201 508.747 C 508.792 513.896, 508.509 515.656, 508.505 525.500 C 508.500 535.355, 508.780 537.097, 511.188 542.235 C 516.341 553.231, 523.914 560.363, 534.170 563.881 C 545.979 567.930, 554.591 567.391, 565.820 561.898 C 572.468 558.645, 572.643 558.651, 574.412 562.199 C 577.016 567.423, 587.662 566.908, 589.225 561.482 C 590.429 557.299, 589.107 487.834, 587.792 486.250 C 586.463 484.648, 576.791 484.609, 575.200 486.200 C 574.540 486.860, 574 488.435, 574 489.700 C 574 492.570, 572.184 492.631, 567.582 489.916 C 559.226 484.986, 545.857 483.701, 536 486.882 M 614.994 485.934 C 603.955 489.292, 598.019 497.450, 598.006 509.282 C 597.999 515.178, 599.732 519.487, 604.125 524.490 C 609.112 530.170, 614.373 532.106, 625.830 532.480 C 631.149 532.653, 636.692 533.263, 638.149 533.835 C 643.995 536.128, 645.822 543.269, 641.634 547.457 C 638.559 550.532, 631.592 551.408, 615.231 550.778 C 600.716 550.219, 599 550.966, 599 557.845 C 599 564.705, 599.964 565.003, 622.079 564.978 C 644.332 564.953, 647.047 564.268, 653.145 557.143 C 663.632 544.892, 659.544 527.511, 644.500 520.387 C 640.249 518.374, 637.949 518.018, 629.150 518.010 L 618.800 518 615.279 514.479 C 612.256 511.456, 611.846 510.502, 612.378 507.729 C 612.719 505.953, 614.148 503.488, 615.555 502.250 C 617.979 500.117, 618.943 500, 634.122 500 C 643.245 500, 650.963 499.555, 652.066 498.965 C 653.613 498.136, 654 496.845, 654 492.500 C 654 488.155, 653.613 486.864, 652.066 486.035 C 649.843 484.845, 618.850 484.761, 614.994 485.934 M 723.200 486.200 C 721.433 487.967, 721.481 562.346, 723.250 563.739 C 725.307 565.358, 731.962 565.974, 734.567 564.787 L 737 563.679 737 525.539 C 737 497.209, 736.691 487.091, 735.800 486.200 C 734.243 484.643, 724.757 484.643, 723.200 486.200 M 749.250 485.641 C 746.316 486.874, 748.682 491.371, 760.488 507 C 767.343 516.075, 772.963 524.232, 772.976 525.127 C 772.989 526.022, 769.043 531.872, 764.207 538.127 C 748.895 557.933, 746.490 561.681, 747.960 563.452 C 748.889 564.571, 751.124 565, 756.029 565 L 762.814 565 766.697 560.250 C 768.833 557.638, 773.212 552.013, 776.429 547.750 C 779.645 543.487, 783.002 540.002, 783.889 540.004 C 784.775 540.007, 789.946 545.613, 795.379 552.462 C 804.728 564.248, 805.488 564.951, 809.537 565.558 C 814.627 566.321, 819.397 565.432, 821.077 563.407 C 822.502 561.690, 820.369 558.431, 805.449 539.531 C 799.595 532.116, 796 526.668, 796 525.213 C 796 523.731, 800.340 517.325, 807.750 507.868 C 823.367 487.938, 822.352 489.527, 821.039 487.072 C 820.084 485.289, 818.985 485, 813.152 485 C 805.217 485, 805.862 484.468, 793.451 501.251 C 789.078 507.163, 784.972 511.888, 784.326 511.751 C 783.681 511.613, 778.731 505.650, 773.326 498.500 L 763.500 485.500 757 485.308 C 753.425 485.202, 749.938 485.352, 749.250 485.641 M 847.500 486.802 C 836.647 490.572, 827.044 499.920, 823.046 510.607 C 813.690 535.612, 828.545 561.497, 854.917 566.142 C 871.938 569.140, 891.089 558.715, 898.804 542.253 C 901.205 537.129, 901.497 535.352, 901.468 526 C 901.429 512.926, 899.193 506.560, 891.796 498.467 C 885.919 492.037, 880.163 488.395, 872.764 486.425 C 865.512 484.495, 853.632 484.672, 847.500 486.802 M 402.994 500.874 C 391.698 504.581, 385.065 513.695, 385.022 525.571 C 384.967 540.873, 397.516 552.119, 413.088 550.721 C 419.627 550.134, 423.694 548.239, 428.297 543.636 C 433.601 538.333, 435.505 533.513, 435.464 525.500 C 435.412 515.327, 430.574 507.438, 421.529 502.780 C 417.219 500.559, 407.118 499.521, 402.994 500.874 M 539.591 501.512 C 530.219 505.093, 524.172 512.973, 523.294 522.750 C 522.273 534.119, 527.536 543.669, 537.514 548.551 C 542.414 550.948, 543.883 551.206, 550.115 550.760 C 556.248 550.321, 557.903 549.749, 562.790 546.377 C 583.077 532.384, 574.348 501.861, 549.636 500.385 C 545.767 500.154, 542.056 500.570, 539.591 501.512 M 853.994 500.934 C 847.085 503.036, 840.856 508.324, 837.425 515 C 834.745 520.216, 834.902 531.278, 837.732 536.628 C 840.560 541.973, 847.823 548.331, 852.807 549.824 C 858.266 551.460, 866.364 551.292, 870.782 549.451 C 878.600 546.194, 885.197 537.539, 886.504 528.823 C 889.107 511.466, 870.852 495.806, 853.994 500.934 M 183.597 538.166 C 182.366 539.922, 182 543.003, 182 551.600 C 182 563.632, 182.719 565.461, 187.195 564.827 C 189.476 564.503, 189.500 564.356, 189.500 550.500 C 189.500 536.929, 189.434 536.491, 187.347 536.193 C 185.997 536.001, 184.597 536.737, 183.597 538.166" stroke="none" fill="#12213d" fill-rule="evenodd"/></svg>