<svg xmlns="http://www.w3.org/2000/svg" viewBox="298 281 430 462" version="1.1"><path d="M 322.872 286.012 C 314.660 287.409, 308.124 292.124, 304.176 299.500 L 301.500 304.500 301.500 512 L 301.500 719.500 303.665 723.500 C 306.233 728.243, 312.124 734.048, 317 736.640 C 320.372 738.432, 327.457 738.510, 510.454 738.763 C 683.889 739.003, 700.835 738.884, 705.320 737.394 C 710.815 735.569, 716.904 729.950, 720.337 723.540 L 722.500 719.500 722.765 514.500 C 723.026 313.065, 722.996 309.387, 721.062 302.999 C 718.947 296.013, 714.689 290.915, 708 287.360 C 704.626 285.567, 697.711 285.495, 516 285.362 C 412.325 285.287, 325.417 285.579, 322.872 286.012 M 387.016 364.830 C 384.878 366.968, 384.030 368.984, 383.546 373.080 C 383.194 376.061, 383.040 441.197, 383.203 517.827 L 383.500 657.154 387.363 660.694 C 390.903 663.938, 391.615 664.191, 395.851 663.713 C 399.523 663.299, 401.046 662.510, 403.238 659.884 L 406 656.576 406 636.381 L 406 616.187 413.122 609.594 C 417.039 605.967, 420.864 603, 421.622 603 C 422.757 603, 423 607.584, 423 629.050 C 423 656.937, 423.324 659.012, 428.217 662.439 C 429.442 663.298, 432.415 664, 434.823 664 C 438.467 664, 439.769 663.431, 442.600 660.600 L 446 657.200 446.100 618.850 C 446.155 597.757, 446.492 579.492, 446.850 578.261 C 447.207 577.029, 453.350 569.703, 460.500 561.980 C 469.832 551.900, 474.052 548.017, 475.455 548.219 C 476.551 548.377, 484.846 557.065, 494.340 568 C 569.838 654.962, 577.001 662.910, 580.459 663.558 C 587.108 664.806, 591.714 662.541, 593.802 656.998 C 595.855 651.547, 594.240 648.517, 581.635 634.166 C 566.867 617.353, 565.122 615.330, 552.500 600.390 C 547 593.880, 540.189 586.067, 537.365 583.027 C 534.540 579.987, 529.365 574.055, 525.865 569.845 C 522.364 565.635, 513.538 555.169, 506.250 546.588 C 498.962 538.006, 493 530.389, 493 529.660 C 493 528.010, 500.350 522, 502.368 522 C 503.843 522, 525.882 544.666, 532.203 552.682 C 534.016 554.982, 542.266 564.657, 550.535 574.182 C 558.804 583.707, 579.001 607.396, 595.418 626.825 C 611.834 646.254, 626.360 662.567, 627.698 663.075 C 632.780 665.007, 637.003 664.197, 640.600 660.600 C 644.024 657.176, 644.908 653.129, 643.180 648.796 C 642.447 646.960, 634.480 637.281, 612.657 611.717 C 548.116 536.109, 546 533.579, 546 532.021 C 546 531.360, 549.939 526.698, 554.753 521.660 C 559.567 516.622, 570.254 505.103, 578.503 496.063 C 586.751 487.023, 599.604 473.025, 607.065 464.957 C 632.723 437.209, 642.502 425.933, 643.218 423.266 C 644.217 419.546, 643.188 415.979, 640.184 412.750 C 638.031 410.435, 636.809 410, 632.460 410 L 627.294 410 618.397 419.263 C 613.504 424.357, 603.440 435.270, 596.034 443.513 C 588.628 451.756, 576.910 464.575, 569.995 472 C 563.079 479.425, 551.645 491.913, 544.586 499.750 C 537.200 507.950, 530.994 514, 529.968 514 C 528.098 514, 520 505.087, 520 503.027 C 520 501.859, 526.340 494.870, 565.950 452.369 C 596.748 419.324, 594 422.743, 594 417.466 C 594 413.693, 593.464 412.310, 591.077 409.923 C 588.697 407.543, 587.303 407, 583.571 407 C 577.933 407, 579.870 405.171, 526.393 461 C 456.783 533.672, 408.632 583, 407.303 583 C 406.314 583, 406 580.442, 406 572.393 L 406 561.787 412.817 554.643 C 419.838 547.286, 478.863 485.663, 514.485 448.500 C 525.556 436.950, 541.451 420.174, 549.807 411.221 C 564.489 395.489, 565 394.798, 565 390.667 C 565 387.144, 564.420 385.830, 561.702 383.196 C 559.030 380.606, 557.588 380, 554.096 380 C 550.103 380, 549.236 380.532, 542.287 387.250 C 538.162 391.238, 524.426 405.413, 511.764 418.750 C 499.101 432.087, 488.150 443, 487.427 443 C 486.371 443, 486.053 435.750, 485.806 406.054 L 485.500 369.109 482.054 365.554 C 479.085 362.493, 477.968 362, 473.991 362 C 470.145 362, 468.884 362.512, 466.437 365.065 L 463.500 368.129 463 419.039 L 462.500 469.948 455.527 476.974 C 451.692 480.838, 447.990 484, 447.300 484 C 446.314 484, 445.989 471.651, 445.774 425.918 L 445.500 367.835 442.234 364.918 C 437.634 360.808, 431.366 360.808, 426.766 364.918 L 423.500 367.835 423.221 439.168 L 422.941 510.500 415.746 517.750 C 411.788 521.738, 407.984 525, 407.293 525 C 406.296 525, 405.980 508.714, 405.768 446.418 L 405.500 367.835 402.234 364.918 C 397.643 360.816, 391.068 360.778, 387.016 364.830 M 468.117 580.631 C 463.295 584.008, 463 586.454, 463 623.068 L 463 657.200 466.400 660.600 C 471.197 665.397, 476.513 665.390, 481.765 660.578 L 485.500 657.156 485.833 628.328 C 486.256 591.621, 485.757 585.603, 481.975 581.821 C 479.744 579.590, 478.243 579, 474.799 579 C 472.392 579, 469.404 579.729, 468.117 580.631" stroke="none" fill="#ffffff" fill-rule="evenodd"/><path d="" stroke="none" fill="#c9b068" fill-rule="evenodd"/><path d="M 322.872 286.012 C 314.660 287.409, 308.124 292.124, 304.176 299.500 L 301.500 304.500 301.500 512 L 301.500 719.500 303.665 723.500 C 306.233 728.243, 312.124 734.048, 317 736.640 C 320.372 738.432, 327.457 738.510, 510.454 738.763 C 683.889 739.003, 700.835 738.884, 705.320 737.394 C 710.815 735.569, 716.904 729.950, 720.337 723.540 L 722.500 719.500 722.765 514.500 C 723.026 313.065, 722.996 309.387, 721.062 302.999 C 718.947 296.013, 714.689 290.915, 708 287.360 C 704.626 285.567, 697.711 285.495, 516 285.362 C 412.325 285.287, 325.417 285.579, 322.872 286.012 M 387.016 364.830 C 384.878 366.968, 384.030 368.984, 383.546 373.080 C 383.194 376.061, 383.040 441.197, 383.203 517.827 L 383.500 657.154 387.363 660.694 C 390.903 663.938, 391.615 664.191, 395.851 663.713 C 399.523 663.299, 401.046 662.510, 403.238 659.884 L 406 656.576 406 636.371 L 406 616.167 413.687 609.083 C 417.916 605.188, 421.741 602, 422.187 602 C 422.634 602, 423 613.947, 423 628.550 C 423 656.976, 423.312 659.004, 428.217 662.439 C 431.988 665.081, 438.459 664.455, 442.234 661.083 L 445.500 658.167 446 617.730 L 446.500 577.293 450.439 572.896 C 452.606 570.478, 458.990 563.584, 464.626 557.575 C 473.863 547.729, 475.043 546.790, 476.579 548.066 C 477.517 548.844, 486.876 559.385, 497.378 571.490 C 568.818 653.841, 577.003 662.910, 580.470 663.560 C 588.789 665.121, 594 661.043, 594 652.971 C 594 648.320, 593.731 647.905, 582.250 634.839 C 575.788 627.485, 569.008 619.675, 567.184 617.484 C 565.360 615.293, 562.660 612.147, 561.184 610.493 C 559.708 608.840, 554.900 603.234, 550.500 598.035 C 546.100 592.837, 540.187 586.090, 537.360 583.042 C 534.533 579.994, 529.583 574.310, 526.360 570.412 C 520.246 563.017, 508.966 549.741, 498.177 537.242 L 491.854 529.917 496.677 525.469 C 499.330 523.023, 501.792 521.017, 502.150 521.011 C 503.086 520.995, 525.471 544.464, 530.906 551.160 C 533.433 554.273, 542.266 564.623, 550.535 574.160 C 558.804 583.697, 579.001 607.396, 595.418 626.825 C 611.834 646.254, 626.360 662.567, 627.698 663.075 C 632.780 665.007, 637.003 664.197, 640.600 660.600 C 644.024 657.176, 644.908 653.129, 643.180 648.796 C 642.447 646.960, 634.480 637.281, 612.657 611.717 C 548.116 536.109, 546 533.579, 546 532.021 C 546 531.360, 549.939 526.698, 554.753 521.660 C 559.567 516.622, 570.254 505.103, 578.503 496.063 C 586.751 487.023, 599.604 473.025, 607.065 464.957 C 632.723 437.209, 642.502 425.933, 643.218 423.266 C 644.217 419.546, 643.188 415.979, 640.184 412.750 C 638.031 410.435, 636.809 410, 632.460 410 L 627.294 410 618.397 419.263 C 613.504 424.357, 603.440 435.270, 596.034 443.513 C 588.628 451.756, 576.912 464.575, 570 472 C 563.087 479.425, 551.440 492.137, 544.118 500.250 C 536.795 508.363, 530.443 515, 530.001 515 C 529.559 515, 526.880 512.325, 524.048 509.055 L 518.897 503.110 532.699 488.165 C 540.289 479.945, 555.253 463.833, 565.950 452.360 C 596.730 419.348, 594 422.745, 594 417.466 C 594 413.693, 593.464 412.310, 591.077 409.923 C 588.697 407.543, 587.303 407, 583.571 407 C 577.933 407, 579.868 405.172, 526.394 461 C 466.288 523.751, 407.714 584, 406.815 584 C 406.367 584, 406 579.002, 406 572.893 L 406 561.787 412.817 554.643 C 419.838 547.286, 478.863 485.663, 514.485 448.500 C 525.556 436.950, 541.451 420.174, 549.807 411.221 C 564.489 395.489, 565 394.798, 565 390.667 C 565 387.144, 564.420 385.830, 561.702 383.196 C 559.032 380.608, 557.587 380, 554.105 380 C 550.157 380, 549.232 380.551, 542.789 386.750 C 538.929 390.462, 524.969 404.863, 511.766 418.750 C 498.563 432.637, 487.389 444, 486.936 444 C 486.483 444, 485.974 427.149, 485.806 406.554 L 485.500 369.109 482.054 365.554 C 479.085 362.493, 477.968 362, 473.991 362 C 470.145 362, 468.884 362.512, 466.437 365.065 L 463.500 368.129 463 419.040 L 462.500 469.952 455.025 477.476 C 450.914 481.614, 447.212 485, 446.798 485 C 446.385 485, 445.924 458.638, 445.773 426.418 L 445.500 367.835 442.234 364.918 C 437.634 360.808, 431.366 360.808, 426.766 364.918 L 423.500 367.835 423.221 439.168 L 422.942 510.500 415.245 518.250 C 411.011 522.513, 407.207 526, 406.791 526 C 406.376 526, 405.915 490.413, 405.768 446.918 L 405.500 367.835 402.234 364.918 C 397.643 360.816, 391.068 360.778, 387.016 364.830 M 468.117 580.631 C 463.295 584.008, 463 586.454, 463 623.068 L 463 657.200 466.400 660.600 C 471.197 665.397, 476.513 665.390, 481.765 660.578 L 485.500 657.156 485.833 628.328 C 486.256 591.621, 485.757 585.603, 481.975 581.821 C 479.744 579.590, 478.243 579, 474.799 579 C 472.392 579, 469.404 579.729, 468.117 580.631" stroke="none" fill="#b59751" fill-rule="evenodd"/></svg>