<svg xmlns="http://www.w3.org/2000/svg" viewBox="119 426 786 172" version="1.1"><path d="" stroke="none" fill="#1a2848" fill-rule="evenodd"/><path d="" stroke="none" fill="#c4a443" fill-rule="evenodd"/><path d="M 311.035 459.934 C 310.361 461.194, 310 479.442, 310 512.279 C 310 559.846, 310.103 562.783, 311.829 564.345 C 314.150 566.446, 320.839 566.501, 323.777 564.443 C 325.840 562.999, 326 562.112, 326 552.118 C 326 542.154, 326.173 541.186, 328.314 539.174 C 329.587 537.978, 331.306 537, 332.134 537 C 332.962 537, 339.140 543.525, 345.863 551.500 L 358.088 566 364.353 566 C 372.154 566, 374.903 564.378, 373.477 560.616 C 372.940 559.198, 366.313 550.601, 358.750 541.512 C 351.188 532.424, 345.014 524.203, 345.031 523.244 C 345.048 522.285, 351.149 514.600, 358.589 506.167 C 369.727 493.543, 372.062 490.364, 371.808 488.167 C 371.511 485.599, 371.244 485.489, 364.606 485.201 C 356.474 484.848, 357.775 483.882, 340.303 503.250 C 333.977 510.262, 328.171 516, 327.400 516 C 326.234 516, 326 511.430, 326 488.655 C 326 457.129, 326.250 458, 317.206 458 C 313.152 458, 311.852 458.407, 311.035 459.934 M 722.750 459.080 C 721.338 459.903, 721 461.500, 721 467.350 C 721 471.655, 721.487 475.087, 722.200 475.800 C 722.871 476.471, 726.089 477, 729.500 477 C 732.911 477, 736.129 476.471, 736.800 475.800 C 737.513 475.087, 738 471.652, 738 467.335 C 738 461.176, 737.706 459.913, 736.066 459.035 C 733.601 457.716, 725.043 457.745, 722.750 459.080 M 470.166 466.300 C 469.573 467.015, 468.955 471.402, 468.794 476.050 L 468.500 484.500 464.513 484.825 C 458.952 485.277, 458 486.412, 458 492.587 C 458 498.662, 459.342 500, 465.434 500 L 469 500 469.010 523.250 C 469.019 545.538, 469.117 546.709, 471.367 551.541 C 473.879 556.936, 478.502 561.466, 483.730 563.657 C 488.293 565.569, 502.205 565.886, 504.337 564.128 C 506.395 562.429, 506.670 552.801, 504.706 551.171 C 503.995 550.581, 500.916 550.188, 497.864 550.299 C 485.532 550.746, 484 547.396, 484 519.980 L 484 500 493.845 500 C 502.113 500, 503.955 499.707, 505.345 498.171 C 507.197 496.124, 507.498 491.439, 506.025 487.565 C 505.063 485.036, 504.902 485, 494.525 485 L 484 485 484 476.934 C 484 466.112, 483.309 465, 476.587 465 C 473.424 465, 470.805 465.530, 470.166 466.300 M 675.719 466.250 C 674.442 467.210, 673.992 469.472, 673.778 476 L 673.500 484.500 669.020 484.819 C 662.944 485.251, 662 486.296, 662 492.587 C 662 498.641, 663.346 500, 669.339 500 L 672.810 500 673.176 522.750 C 673.516 543.866, 673.706 545.858, 675.820 550.488 C 680.612 560.981, 687.606 564.975, 701.215 564.990 C 711.021 565.001, 712 564.321, 712 557.500 C 712 550.993, 710.821 550, 703.100 550 C 695.003 550, 691.649 547.998, 690.040 542.205 C 689.474 540.167, 689.009 529.837, 689.006 519.250 L 689 500 698.878 500 C 710.668 500, 711.230 499.591, 710.802 491.334 L 710.500 485.500 699.750 485.216 L 689 484.932 689 476.166 C 689 470.681, 688.551 466.951, 687.800 466.200 C 686.222 464.622, 677.839 464.657, 675.719 466.250 M 396.500 486.757 C 385.053 490.837, 375.944 500.216, 371.983 512 C 370.175 517.379, 369.869 520.139, 370.209 528 C 370.693 539.177, 373.345 545.831, 380.483 553.770 C 392.045 566.630, 413.264 570.503, 427.876 562.420 C 433.466 559.329, 434.161 559.374, 436.842 563 C 438.772 565.611, 439.684 566, 443.875 566 C 452.334 566, 452 567.673, 452 525.326 C 452 483.215, 452.362 485, 443.826 485 C 439.071 485, 436 487.091, 436 490.329 C 436 492.618, 435.235 492.478, 427.362 488.750 C 421.340 485.898, 419.337 485.468, 411 485.237 C 403.895 485.041, 400.240 485.424, 396.500 486.757 M 534.942 486.772 C 519.373 492.675, 510.250 503.866, 508.016 519.798 C 506.119 533.334, 510.044 545.174, 519.591 554.722 C 532.026 567.157, 550.646 570.056, 566.390 562.010 C 573.539 558.357, 574 558.328, 574 561.525 C 574 563.315, 574.746 564.333, 576.565 565.025 C 580.260 566.429, 585.311 566.225, 587.559 564.579 C 589.420 563.216, 589.500 561.625, 589.500 525.732 C 589.500 495.479, 589.237 487.989, 588.128 486.653 C 587.175 485.505, 585.172 485, 581.578 485 C 575.910 485, 574 486.184, 574 489.700 C 574 492.667, 573.542 492.618, 565.362 488.781 C 559.365 485.968, 557.303 485.530, 549 485.303 C 541.920 485.109, 538.339 485.484, 534.942 486.772 M 612.519 486.598 C 603.723 489.818, 598.044 498.410, 598.044 508.500 C 598.044 515.973, 600.365 521.308, 605.713 526.129 C 610.768 530.687, 614.014 531.671, 626.500 532.431 C 633.867 532.879, 637.158 533.518, 639 534.860 C 644.532 538.888, 645.096 545.579, 640.175 548.807 C 638.048 550.203, 634.428 550.559, 619.548 550.835 C 609.066 551.029, 600.977 551.604, 600.251 552.207 C 598.291 553.833, 598.684 561.404, 600.829 563.345 C 603.447 565.714, 639.148 565.799, 644.782 563.449 C 660.079 557.069, 663.883 537.036, 652.045 525.199 C 646.473 519.627, 643.629 518.698, 630.135 518.039 C 618.198 517.456, 617.689 517.339, 615.385 514.662 C 614.073 513.136, 613 510.601, 613 509.026 C 613 501.093, 615.754 500, 635.750 500 C 646.745 500, 651.968 499.632, 652.800 498.800 C 653.460 498.140, 654 495.305, 654 492.500 C 654 489.695, 653.460 486.860, 652.800 486.200 C 650.963 484.363, 617.728 484.691, 612.519 486.598 M 723.200 486.200 C 722.308 487.092, 722 497.237, 722 525.665 C 722 569.027, 721.371 566, 730.378 566 C 738.163 566, 738 566.868, 738 525.500 C 738 483.621, 738.284 485, 729.643 485 C 726.759 485, 723.860 485.540, 723.200 486.200 M 749.200 486.200 C 748.540 486.860, 748 488.150, 748 489.067 C 748 489.983, 753.625 498.234, 760.500 507.401 C 767.375 516.568, 773 524.594, 773 525.236 C 773 525.879, 767.575 533.546, 760.945 542.276 C 754.315 551.005, 748.370 559.288, 747.735 560.683 C 746.053 564.375, 748.770 566, 756.624 566 L 762.865 566 772.683 553.003 C 778.082 545.854, 783.181 540.004, 784.013 540.003 C 784.845 540.001, 788.670 544.150, 792.513 549.223 C 805.133 565.883, 805.272 566, 812.461 566 C 817.330 566, 819.069 565.581, 820.425 564.083 C 822.448 561.847, 821.792 560.065, 816.529 553.500 C 804.979 539.095, 796.004 526.722, 796.027 525.237 C 796.042 524.282, 801.696 516.175, 808.591 507.222 C 818.656 494.154, 821.066 490.408, 820.814 488.222 C 820.510 485.588, 820.278 485.490, 813.632 485.202 C 805.352 484.842, 805.835 484.479, 794.248 499.750 C 789.553 505.938, 785.149 511, 784.463 511 C 783.776 511, 779.719 506.387, 775.447 500.750 C 763.283 484.699, 763.645 485, 756.513 485 C 753.092 485, 749.872 485.528, 749.200 486.200 M 847.423 486.776 C 834.987 491.184, 824.863 502.339, 821.356 515.500 C 813.828 543.750, 838.663 570.997, 867.573 566.207 C 880.894 563.999, 891.895 555.922, 898.249 543.683 C 901.312 537.783, 901.459 536.975, 901.479 526 C 901.498 515.480, 901.262 513.989, 898.702 508.500 C 894.977 500.510, 886.430 491.935, 878.600 488.331 C 873.421 485.947, 870.991 485.482, 862.500 485.250 C 854.878 485.042, 851.293 485.405, 847.423 486.776 M 402 501.649 C 395.621 503.851, 391.862 507, 388.720 512.773 C 379.615 529.502, 389.427 549.061, 407.750 550.706 C 418.570 551.678, 427.419 547.158, 432.318 538.157 C 437.775 528.131, 436.551 517.316, 428.987 508.723 C 422.187 500.997, 411.785 498.271, 402 501.649 M 542.500 500.878 C 528.527 504.547, 519.707 520.041, 524.159 533.101 C 526.131 538.888, 530.853 544.829, 535.782 547.727 C 539.806 550.092, 541.604 550.500, 548 550.500 C 559.022 550.500, 566.307 546.199, 571.057 536.888 C 579.025 521.269, 568.057 501.717, 550.622 500.460 C 547.805 500.256, 544.150 500.444, 542.500 500.878 M 852.737 501.792 C 845.950 504.226, 841.580 508.114, 838.457 514.499 C 836.060 519.397, 835.795 520.903, 836.204 527.283 C 836.731 535.495, 839.325 540.650, 845.487 545.728 C 854.582 553.226, 868.889 552.831, 877.555 544.843 C 883.647 539.227, 886.384 533.143, 886.311 525.379 C 886.205 514.100, 879.183 504.617, 868.612 501.477 C 862.266 499.593, 858.669 499.664, 852.737 501.792" stroke="none" fill="#ffffff" fill-rule="evenodd"/><path d="M 128.242 431.494 C 126.431 432.281, 124.544 434.069, 123.992 435.520 C 123.368 437.163, 123 465.938, 123 513.142 L 123 588.154 125.923 591.077 L 128.846 594 198.867 594 L 268.888 594 271.694 591.587 L 274.500 589.173 274.500 512 L 274.500 434.827 271.694 432.413 L 268.888 430 200.194 430.039 C 143.213 430.072, 130.945 430.320, 128.242 431.494 M 311.035 459.934 C 310.361 461.194, 310 479.442, 310 512.279 C 310 559.846, 310.103 562.783, 311.829 564.345 C 314.150 566.446, 320.839 566.501, 323.777 564.443 C 325.837 563.001, 326 562.108, 326 552.248 C 326 542.065, 326.115 541.489, 328.687 538.805 C 330.165 537.262, 331.688 536, 332.071 536 C 332.453 536, 338.467 542.750, 345.434 551 L 358.101 566 364.360 566 C 372.145 566, 374.904 564.375, 373.477 560.630 C 372.940 559.219, 366.425 550.771, 359 541.855 C 351.575 532.939, 345.134 525.039, 344.687 524.299 C 344.123 523.365, 348.189 518.049, 357.996 506.899 C 369.650 493.650, 372.064 490.378, 371.809 488.172 C 371.511 485.599, 371.246 485.489, 364.616 485.201 C 356.464 484.847, 358.087 483.643, 340.301 503.250 C 333.441 510.813, 327.417 517, 326.914 517 C 326.384 517, 326 505.310, 326 489.155 C 326 457.064, 326.264 458, 317.206 458 C 313.152 458, 311.852 458.407, 311.035 459.934 M 722.750 459.080 C 721.338 459.903, 721 461.500, 721 467.350 C 721 471.655, 721.487 475.087, 722.200 475.800 C 722.871 476.471, 726.089 477, 729.500 477 C 732.911 477, 736.129 476.471, 736.800 475.800 C 737.513 475.087, 738 471.652, 738 467.335 C 738 461.176, 737.706 459.913, 736.066 459.035 C 733.601 457.716, 725.043 457.745, 722.750 459.080 M 155.241 459.830 C 154.250 460.459, 154.037 471.658, 154.241 512.456 C 154.481 560.562, 154.626 564.362, 156.250 565.386 C 157.523 566.189, 158.477 566.190, 159.750 565.390 C 161.107 564.537, 161.567 562.636, 161.798 556.921 C 162.099 549.495, 163.653 546, 166.655 546 C 167.682 546, 168 548.122, 168 554.965 C 168 562.906, 168.228 564.052, 170 565 C 171.421 565.760, 172.579 565.760, 174 565 C 175.850 564.010, 176 562.906, 176 550.323 L 176 536.716 180.577 531.358 C 183.095 528.411, 185.974 526, 186.975 526 C 188.040 526, 192.056 529.846, 196.648 535.263 C 218.568 561.123, 223.348 566.101, 225.970 565.795 C 229.858 565.342, 229.796 561.732, 225.821 557.180 C 195.355 522.292, 191.580 517.090, 196.098 516.220 C 197.708 515.910, 210.844 530.083, 230.652 553.502 C 240.562 565.219, 242.988 567.085, 245.548 564.960 C 247.960 562.958, 247.216 560.460, 242.689 555.358 C 227.297 538.012, 213 520.822, 213 519.661 C 213 518.911, 220.537 510.061, 229.750 499.996 C 242.420 486.152, 246.500 481.062, 246.500 479.097 C 246.500 477.040, 245.956 476.437, 243.884 476.197 C 241.643 475.937, 239.262 478.082, 227.241 491.197 C 209.541 510.507, 207.518 512.413, 205.537 511.653 C 201.564 510.128, 202.902 507.862, 215.891 494.116 C 228.821 480.432, 231.093 476.740, 227.445 475.340 C 226.589 475.012, 225.064 475.139, 224.055 475.622 C 223.046 476.105, 209.314 489.887, 193.539 506.250 C 177.764 522.612, 164.214 536, 163.429 536 C 162.481 536, 162 534.897, 162 532.726 C 162 529.799, 164.941 526.395, 189.750 500.606 C 205.012 484.740, 217.901 470.924, 218.392 469.903 C 219.470 467.661, 217.602 465, 214.949 465 C 213.941 465, 208.606 469.856, 202.865 476 C 197.212 482.050, 192.017 487, 191.321 487 C 190.376 487, 189.986 483.523, 189.778 473.250 L 189.500 459.500 186.817 459.190 C 185.009 458.981, 183.843 459.470, 183.240 460.690 C 182.748 461.686, 182.246 470.364, 182.124 479.975 C 181.942 494.404, 181.623 497.759, 180.297 499.225 C 176.435 503.492, 176.054 501.948, 175.771 480.858 C 175.530 462.941, 175.307 460.594, 173.750 459.613 C 172.474 458.809, 171.526 458.809, 170.250 459.613 C 168.670 460.609, 168.474 463.185, 168.232 486.049 C 168.002 507.860, 167.737 511.633, 166.327 513.191 C 162.229 517.720, 162 516.399, 162 488.200 C 162 468.689, 161.674 461.074, 160.800 460.200 C 159.424 458.824, 157.072 458.668, 155.241 459.830 M 470.166 466.300 C 469.573 467.015, 468.955 471.402, 468.794 476.050 L 468.500 484.500 464.513 484.825 C 458.952 485.277, 458 486.412, 458 492.587 C 458 498.662, 459.342 500, 465.434 500 L 469 500 469.010 523.250 C 469.019 545.538, 469.117 546.709, 471.367 551.541 C 473.879 556.936, 478.502 561.466, 483.730 563.657 C 488.293 565.569, 502.205 565.886, 504.337 564.128 C 506.395 562.429, 506.670 552.801, 504.706 551.171 C 503.995 550.581, 500.916 550.188, 497.864 550.299 C 485.532 550.746, 484 547.396, 484 519.980 L 484 500 493.845 500 C 502.113 500, 503.955 499.707, 505.345 498.171 C 507.197 496.124, 507.498 491.439, 506.025 487.565 C 505.063 485.036, 504.902 485, 494.525 485 L 484 485 484 476.934 C 484 466.112, 483.309 465, 476.587 465 C 473.424 465, 470.805 465.530, 470.166 466.300 M 675.719 466.250 C 674.442 467.210, 673.992 469.472, 673.778 476 L 673.500 484.500 669.020 484.819 C 662.944 485.251, 662 486.296, 662 492.587 C 662 498.641, 663.346 500, 669.339 500 L 672.810 500 673.176 522.750 C 673.516 543.866, 673.706 545.858, 675.820 550.488 C 680.612 560.981, 687.606 564.975, 701.215 564.990 C 711.021 565.001, 712 564.321, 712 557.500 C 712 550.993, 710.821 550, 703.100 550 C 695.003 550, 691.649 547.998, 690.040 542.205 C 689.474 540.167, 689.009 529.837, 689.006 519.250 L 689 500 698.878 500 C 710.668 500, 711.230 499.591, 710.802 491.334 L 710.500 485.500 699.750 485.216 L 689 484.932 689 476.166 C 689 470.681, 688.551 466.951, 687.800 466.200 C 686.222 464.622, 677.839 464.657, 675.719 466.250 M 396.500 486.757 C 385.053 490.837, 375.944 500.216, 371.983 512 C 368.847 521.330, 369.452 535.068, 373.355 543.192 C 383.547 564.402, 409.037 572.931, 428.958 561.798 C 432.165 560.006, 434.564 559.192, 434.775 559.824 C 434.972 560.416, 436.036 562.047, 437.139 563.450 C 438.789 565.547, 439.993 566, 443.918 566 C 452.327 566, 452 567.646, 452 525.326 C 452 483.215, 452.362 485, 443.826 485 C 438.799 485, 436 487.114, 436 490.912 C 436 492.152, 435.663 492.996, 435.250 492.788 C 420.958 485.581, 420.716 485.506, 411 485.237 C 403.895 485.041, 400.240 485.424, 396.500 486.757 M 534.942 486.772 C 519.373 492.675, 510.250 503.866, 508.016 519.798 C 506.119 533.334, 510.044 545.174, 519.591 554.722 C 532.980 568.111, 555.307 570.462, 569.962 560.027 C 573.692 557.371, 574 557.447, 574 561.025 C 574 563.351, 574.592 564.275, 576.565 565.025 C 580.260 566.429, 585.311 566.225, 587.559 564.579 C 589.420 563.216, 589.500 561.625, 589.500 525.732 C 589.500 495.479, 589.237 487.989, 588.128 486.653 C 586.482 484.671, 577.059 484.341, 575.200 486.200 C 574.540 486.860, 574 488.697, 574 490.283 C 574 491.869, 573.663 492.996, 573.250 492.788 C 559.373 485.790, 558.649 485.567, 549 485.303 C 541.920 485.109, 538.339 485.484, 534.942 486.772 M 612.519 486.598 C 603.723 489.818, 598.044 498.410, 598.044 508.500 C 598.044 515.973, 600.365 521.308, 605.713 526.129 C 610.768 530.687, 614.014 531.671, 626.500 532.431 C 633.867 532.879, 637.158 533.518, 639 534.860 C 644.532 538.888, 645.096 545.579, 640.175 548.807 C 638.048 550.203, 634.428 550.559, 619.548 550.835 C 609.066 551.029, 600.977 551.604, 600.251 552.207 C 598.291 553.833, 598.684 561.404, 600.829 563.345 C 603.447 565.714, 639.148 565.799, 644.782 563.449 C 660.079 557.069, 663.883 537.036, 652.045 525.199 C 646.473 519.627, 643.629 518.698, 630.135 518.039 C 618.198 517.456, 617.689 517.339, 615.385 514.662 C 614.073 513.136, 613 510.601, 613 509.026 C 613 501.093, 615.754 500, 635.750 500 C 646.745 500, 651.968 499.632, 652.800 498.800 C 653.460 498.140, 654 495.305, 654 492.500 C 654 489.695, 653.460 486.860, 652.800 486.200 C 650.963 484.363, 617.728 484.691, 612.519 486.598 M 723.200 486.200 C 722.308 487.092, 722 497.237, 722 525.665 C 722 569.027, 721.371 566, 730.378 566 C 738.163 566, 738 566.868, 738 525.500 C 738 483.621, 738.284 485, 729.643 485 C 726.759 485, 723.860 485.540, 723.200 486.200 M 749.200 486.200 C 748.540 486.860, 748 488.150, 748 489.067 C 748 489.983, 753.625 498.234, 760.500 507.401 C 767.375 516.568, 773 524.594, 773 525.236 C 773 525.879, 767.575 533.546, 760.945 542.276 C 754.315 551.005, 748.370 559.288, 747.735 560.683 C 746.053 564.374, 748.770 566, 756.620 566 L 762.858 566 773.073 552.500 C 778.691 545.075, 783.606 539, 783.994 539 C 784.382 539, 788.212 543.612, 792.505 549.250 C 805.126 565.825, 805.334 566, 812.496 566 C 822.148 566, 823.576 562.442, 817.178 554.340 C 810.528 545.917, 796.448 527.549, 795.667 526.277 C 795.197 525.513, 799.831 518.662, 808.022 508.008 C 818.584 494.273, 821.068 490.432, 820.815 488.231 C 820.510 485.586, 820.284 485.491, 813.632 485.202 C 805.340 484.841, 805.945 484.381, 793.854 500.245 C 788.912 506.730, 784.500 511.809, 784.051 511.532 C 783.602 511.254, 779.735 506.409, 775.457 500.764 C 763.282 484.697, 763.646 485, 756.513 485 C 753.092 485, 749.872 485.528, 749.200 486.200 M 847.423 486.776 C 834.987 491.184, 824.863 502.339, 821.356 515.500 C 813.828 543.750, 838.663 570.997, 867.573 566.207 C 880.894 563.999, 891.895 555.922, 898.249 543.683 C 901.312 537.783, 901.459 536.975, 901.479 526 C 901.498 515.480, 901.262 513.989, 898.702 508.500 C 894.977 500.510, 886.430 491.935, 878.600 488.331 C 873.421 485.947, 870.991 485.482, 862.500 485.250 C 854.878 485.042, 851.293 485.405, 847.423 486.776 M 402 501.649 C 395.621 503.851, 391.862 507, 388.720 512.773 C 379.615 529.502, 389.427 549.061, 407.750 550.706 C 418.570 551.678, 427.419 547.158, 432.318 538.157 C 437.775 528.131, 436.551 517.316, 428.987 508.723 C 422.187 500.997, 411.785 498.271, 402 501.649 M 542.500 500.878 C 528.527 504.547, 519.707 520.041, 524.159 533.101 C 526.131 538.888, 530.853 544.829, 535.782 547.727 C 539.806 550.092, 541.604 550.500, 548 550.500 C 559.022 550.500, 566.307 546.199, 571.057 536.888 C 579.025 521.269, 568.057 501.717, 550.622 500.460 C 547.805 500.256, 544.150 500.444, 542.500 500.878 M 852.737 501.792 C 845.950 504.226, 841.580 508.114, 838.457 514.499 C 836.060 519.397, 835.795 520.903, 836.204 527.283 C 836.731 535.495, 839.325 540.650, 845.487 545.728 C 854.582 553.226, 868.889 552.831, 877.555 544.843 C 883.647 539.227, 886.384 533.143, 886.311 525.379 C 886.205 514.100, 879.183 504.617, 868.612 501.477 C 862.266 499.593, 858.669 499.664, 852.737 501.792 M 183.597 538.166 C 182.374 539.911, 182 542.971, 182 551.223 C 182 560.707, 182.243 562.243, 184.023 564.023 C 185.642 565.642, 186.446 565.832, 188.051 564.973 C 189.930 563.967, 190.038 563.039, 189.778 550.200 C 189.511 537.037, 189.416 536.488, 187.347 536.193 C 185.997 536.001, 184.597 536.737, 183.597 538.166" stroke="none" fill="#122032" fill-rule="evenodd"/><path d="M 128.242 431.494 C 126.431 432.281, 124.544 434.069, 123.992 435.520 C 123.368 437.163, 123 465.938, 123 513.142 L 123 588.154 125.923 591.077 L 128.846 594 198.867 594 L 268.888 594 271.694 591.587 L 274.500 589.173 274.500 512 L 274.500 434.827 271.694 432.413 L 268.888 430 200.194 430.039 C 143.213 430.072, 130.945 430.320, 128.242 431.494 M 155.241 459.830 C 154.250 460.459, 154.037 471.658, 154.241 512.456 C 154.481 560.562, 154.626 564.362, 156.250 565.386 C 157.523 566.189, 158.477 566.190, 159.750 565.390 C 161.108 564.537, 161.567 562.635, 161.799 556.908 C 162.037 551.020, 162.528 549.067, 164.223 547.263 C 165.392 546.018, 166.704 545, 167.138 545 C 167.572 545, 168.056 549.388, 168.214 554.750 L 168.500 564.500 172 564.500 L 175.500 564.500 176 550.314 L 176.500 536.128 181.273 530.604 C 184.320 527.078, 186.574 525.283, 187.506 525.641 C 188.309 525.949, 192.461 530.324, 196.733 535.364 C 218.562 561.117, 223.351 566.101, 225.970 565.795 C 230.623 565.252, 229.786 561.614, 223.326 554.293 C 210.743 540.033, 194.879 521.418, 193.995 519.876 C 193.328 518.712, 193.587 517.779, 194.911 516.581 C 196.669 514.989, 197.320 515.541, 208.650 528.231 C 215.192 535.557, 225.003 546.823, 230.452 553.265 C 235.901 559.708, 241.200 565.246, 242.228 565.572 C 244.465 566.282, 247 564.416, 247 562.060 C 247 561.128, 239.995 552.295, 231.433 542.432 C 222.871 532.570, 215.016 523.333, 213.976 521.906 L 212.086 519.312 229.293 500.500 C 242.310 486.268, 246.500 481.056, 246.500 479.094 C 246.500 477.050, 245.953 476.436, 243.920 476.200 C 241.759 475.949, 239.737 477.657, 231.488 486.700 C 226.069 492.640, 218.253 500.976, 214.118 505.224 C 207.048 512.486, 206.492 512.850, 204.800 511.319 C 203.810 510.423, 203 509.255, 203 508.724 C 203 508.192, 208.850 501.567, 216 494 C 228.823 480.430, 231.087 476.738, 227.445 475.340 C 226.589 475.012, 225.066 475.139, 224.060 475.622 C 223.053 476.105, 209.098 490.113, 193.048 506.750 C 176.999 523.388, 163.447 537, 162.934 537 C 162.420 537, 162 535.302, 162 533.226 C 162 529.644, 163.414 527.982, 189.750 500.606 C 205.012 484.740, 217.901 470.924, 218.392 469.903 C 219.469 467.663, 217.602 465, 214.954 465 C 213.946 465, 208.408 470.071, 202.392 476.500 C 196.475 482.825, 191.278 488, 190.844 488 C 190.410 488, 189.930 481.587, 189.777 473.750 C 189.502 459.619, 189.480 459.497, 187.135 459.165 C 185.834 458.981, 184.312 459.288, 183.754 459.846 C 183.176 460.424, 182.543 468.758, 182.285 479.181 C 181.868 496.033, 181.665 497.680, 179.742 499.750 C 178.592 500.988, 177.289 502, 176.846 502 C 176.403 502, 175.919 492.711, 175.770 481.358 C 175.529 462.964, 175.309 460.596, 173.750 459.613 C 172.474 458.809, 171.526 458.809, 170.250 459.613 C 168.670 460.609, 168.474 463.185, 168.232 486.063 C 167.975 510.458, 167.884 511.495, 165.808 513.704 C 164.622 514.967, 163.280 516, 162.826 516 C 162.372 516, 162 503.715, 162 488.700 C 162 468.800, 161.675 461.075, 160.800 460.200 C 159.424 458.824, 157.072 458.668, 155.241 459.830 M 183.597 538.166 C 182.379 539.905, 182 542.955, 182 551.031 C 182 562.765, 182.972 565.421, 187.056 564.845 L 189.500 564.500 189.500 550.500 C 189.500 536.929, 189.434 536.491, 187.347 536.193 C 185.997 536.001, 184.597 536.737, 183.597 538.166" stroke="none" fill="#c7a14c" fill-rule="evenodd"/></svg>