<svg xmlns="http://www.w3.org/2000/svg" viewBox="165 329 702 371" version="1.1"><path d="M 425.302 334.012 C 419.837 336.213, 420 333.194, 420 432.500 C 420 530.920, 419.866 528.252, 424.945 530.970 C 427.878 532.540, 595.069 532.381, 598.528 530.805 C 604.210 528.216, 604 531.987, 604 432.500 C 604 332.540, 604.207 336.170, 598.387 333.957 C 595.171 332.734, 428.343 332.787, 425.302 334.012 M 459.064 368.750 L 456.907 370.500 456.967 432.203 C 457 466.140, 457.288 494.586, 457.606 495.415 C 458.514 497.781, 461.846 498.331, 464.549 496.560 C 466.863 495.044, 467 494.428, 467 485.534 C 467 476.933, 467.193 475.978, 469.223 474.557 C 473.605 471.487, 474 472.254, 474 483.845 C 474 493.081, 474.271 494.935, 475.829 496.345 C 478.125 498.423, 480.405 498.452, 482.429 496.429 C 483.734 495.123, 484 491.978, 484 477.854 L 484 460.852 489.694 454.882 C 493.124 451.286, 496.072 449.029, 497.107 449.206 C 498.053 449.368, 508.448 460.300, 520.207 473.500 C 534.251 489.264, 542.364 497.612, 543.849 497.827 C 546.616 498.227, 549 496.401, 549 493.882 C 549 492.852, 542.800 484.919, 535.222 476.255 C 506.920 443.892, 504.558 440.925, 505.680 439.145 C 508.023 435.431, 510.751 437.317, 522.205 450.564 C 561.792 496.351, 563.295 498, 565.434 498 C 568.187 498, 570 496.199, 570 493.466 C 570 492.135, 562.291 482.328, 549.523 467.416 C 536.882 452.651, 529.038 442.679, 529.023 441.356 C 529.008 439.947, 535.087 432.628, 546.750 420.016 C 570.222 394.633, 570.339 394.487, 569.614 391.599 C 568.925 388.855, 566.796 387.751, 564.181 388.782 C 562.612 389.400, 544.313 408.515, 527.324 427.282 C 524.477 430.427, 521.734 433, 521.229 433 C 520.025 433, 517 429.637, 517 428.298 C 517 427.724, 523.975 419.750, 532.500 410.580 C 545.189 396.930, 548 393.374, 548 390.972 C 548 388.700, 547.452 387.901, 545.572 387.429 C 544.237 387.094, 542.535 387.198, 541.790 387.660 C 541.045 388.122, 531.247 397.950, 520.018 409.500 C 483.118 447.453, 468.656 462, 467.822 462 C 467.370 462, 467 460.126, 467 457.835 C 467 454.104, 467.646 452.984, 473.203 447.085 C 489.893 429.366, 497.007 421.883, 515.250 402.856 C 536.480 380.715, 537.991 378.320, 532.357 375.753 C 529.794 374.585, 529.328 374.947, 516.921 387.774 C 509.885 395.048, 503.705 401, 503.188 401 C 502.665 401, 502.032 394.451, 501.763 386.250 C 501.497 378.137, 500.961 370.759, 500.572 369.854 C 499.451 367.241, 495.085 366.915, 492.733 369.267 C 490.780 371.220, 490.723 372.102, 491.298 391.401 C 491.880 410.954, 491.837 411.588, 489.698 414.743 C 488.489 416.527, 486.712 417.989, 485.750 417.993 C 484.132 417.999, 484 416.194, 484 394.023 L 484 370.046 481.500 368.408 C 479.184 366.891, 478.816 366.891, 476.500 368.408 L 474 370.046 474 400.849 L 474 431.651 471.686 433.826 C 467.022 438.207, 467 438.064, 467 403.500 C 467 372.333, 466.918 370.918, 465 369 C 462.552 366.552, 461.812 366.521, 459.064 368.750 M 493.405 463.105 C 491.710 464.978, 491.500 466.862, 491.500 480.186 C 491.500 493.856, 491.669 495.285, 493.441 496.581 C 495.946 498.413, 497.484 498.373, 499.429 496.429 C 500.721 495.136, 501 492.128, 501 479.500 C 501 466.872, 500.721 463.864, 499.429 462.571 C 497.307 460.450, 495.677 460.594, 493.405 463.105 M 175.500 565.671 C 174.400 565.965, 172.713 566.905, 171.750 567.758 C 170.121 569.203, 170 573.336, 170 627.432 C 170 694.543, 169.348 690, 178.985 690 C 187.587 690, 188 689.318, 188 675.132 L 188 663.406 191.792 659.703 C 193.878 657.666, 195.869 656, 196.217 656 C 196.565 656, 202.568 662.638, 209.557 670.750 C 227.203 691.232, 225.570 690, 235.077 690 C 242.507 690, 243.116 689.839, 244.132 687.609 C 244.775 686.198, 244.869 684.596, 244.361 683.699 C 243.887 682.863, 235.963 673.377, 226.750 662.618 C 217.537 651.860, 210 642.472, 210 641.757 C 210 641.042, 217.425 632.001, 226.500 621.666 C 235.575 611.331, 243 602.058, 243 601.060 C 243 597.779, 240.569 596.898, 232.364 597.206 L 224.538 597.500 207.250 616.500 C 197.741 626.950, 189.520 635.650, 188.981 635.833 C 188.353 636.047, 188 624.163, 188 602.774 C 188 577.153, 187.701 568.973, 186.715 567.625 C 185.384 565.804, 179.093 564.708, 175.500 565.671 M 656.826 565.677 C 651.550 566.301, 650.493 568.129, 650.540 576.549 C 650.593 586.211, 651.343 587, 660.467 587 C 669.910 587, 671 585.899, 671 576.362 C 671 572.255, 670.471 568.659, 669.715 567.625 C 668.341 565.745, 663.028 564.942, 656.826 565.677 M 358 575 C 356.267 576.733, 356 578.333, 356 587 L 356 597 351.155 597 C 344.828 597, 343 598.944, 343 605.674 C 343 611.847, 344.779 613.738, 351.002 614.180 L 355.500 614.500 356 641.500 C 356.457 666.160, 356.681 668.891, 358.588 673.011 C 363.328 683.251, 373.135 689.098, 386.781 689.817 C 397.482 690.382, 399 689.276, 399 680.916 C 399 673.016, 397.804 672, 388.505 672 C 382.073 672, 380.772 671.679, 378.106 669.436 C 376.430 668.025, 374.598 665.213, 374.035 663.186 C 373.472 661.159, 373.009 649.263, 373.006 636.750 L 373 614 384.429 614 C 398.123 614, 399 613.489, 399 605.500 C 399 597.511, 398.123 597, 384.429 597 L 373 597 373 587 C 373 574.934, 371.826 573, 364.500 573 C 361.333 573, 359.407 573.593, 358 575 M 598 575 C 596.267 576.733, 596 578.333, 596 587 L 596 597 590.200 597 C 587.010 597, 583.860 597.540, 583.200 598.200 C 582.540 598.860, 582 601.978, 582 605.129 C 582 612.530, 583.409 614, 590.499 614 L 595.855 614 596.179 640.750 C 596.490 666.383, 596.602 667.719, 598.871 672.742 C 603.502 682.991, 613.179 689.024, 626.231 689.797 C 637.180 690.445, 639 689.146, 639 680.677 C 639 677.128, 638.478 673.878, 637.800 673.200 C 637.074 672.474, 633.550 672, 628.877 672 C 622.109 672, 620.788 671.692, 618.199 669.514 C 613.763 665.781, 613 660.872, 613 636.057 L 613 614 624.345 614 C 637.818 614, 639.009 613.302, 638.985 605.421 C 638.961 597.729, 638.701 597.569, 625.289 597 L 613.500 596.500 613.211 586.536 C 612.861 574.439, 611.971 573, 604.845 573 C 601.333 573, 599.450 573.550, 598 575 M 274.500 598.349 C 262.578 601.456, 250.781 610.578, 245.689 620.626 C 237.289 637.203, 238.241 656.453, 248.204 671.495 C 251.655 676.705, 260.665 683.874, 267.640 686.959 C 281.883 693.259, 298.722 691.791, 311.274 683.155 C 313.797 681.420, 316.117 680, 316.430 680 C 316.744 680, 317 681.549, 317 683.443 C 317 688.166, 319.850 690, 327.187 690 C 331.841 690, 333.126 689.633, 333.965 688.066 C 334.632 686.819, 335 670.888, 335 643.221 C 335 594.201, 335.521 597, 326.394 597 C 319.894 597, 317 599.020, 317 603.557 C 317 607.534, 316.258 607.777, 312.687 604.969 C 306.491 600.094, 299.024 597.691, 289.058 597.361 C 283.372 597.174, 277.474 597.574, 274.500 598.349 M 435 598.433 C 406.957 606.249, 392.979 637.842, 405.655 664.762 C 409 671.867, 418.691 681.796, 425.793 685.395 C 441.103 693.153, 459.916 692.403, 471.492 683.574 C 475.909 680.205, 476.650 680.319, 477.432 684.488 C 478.269 688.953, 480.639 690.172, 487.751 689.799 C 492.677 689.541, 493.621 689.161, 494.711 687 C 496.281 683.884, 496.558 607.432, 495.018 602.064 C 493.760 597.677, 492.644 597.034, 486.250 597.015 C 480.267 596.998, 477 599.288, 477 603.500 C 477 606.637, 476.026 606.636, 471.397 603.495 C 462.799 597.660, 446.104 595.338, 435 598.433 M 525.718 598.092 C 513.124 601.057, 505.641 610.963, 505.725 624.555 C 505.836 642.482, 518.116 652, 541.137 652 C 555.524 652, 561 654.974, 561 662.788 C 561 671.874, 557.703 673, 531.089 673 C 510.547 673, 510.081 673.046, 508.557 675.223 C 506.251 678.514, 506.536 685.536, 509.078 688.078 C 511.087 690.087, 511.959 690.145, 534.828 689.818 C 557.229 689.497, 558.784 689.351, 563.794 687.098 C 570.031 684.292, 575.559 678.279, 577.167 672.553 C 578.731 666.983, 578.497 656.124, 576.720 651.873 C 574.522 646.611, 569.304 641.194, 563.590 638.241 C 558.980 635.859, 557.115 635.559, 543.815 635.056 C 529.255 634.505, 529.104 634.475, 526.065 631.563 C 523.677 629.274, 523 627.770, 523 624.747 C 523 615.220, 526.168 614, 550.911 614 C 569.386 614, 569.928 613.941, 571.443 611.777 C 572.299 610.555, 573 607.730, 573 605.500 C 573 603.270, 572.299 600.445, 571.443 599.223 C 569.918 597.045, 569.482 597.002, 549.693 597.100 C 538.587 597.156, 527.798 597.602, 525.718 598.092 M 653.655 598.829 C 652.169 600.471, 652 605.050, 652 643.674 C 652 693.120, 651.382 690, 661.174 690 C 670.537 690, 670 692.841, 670 643.326 C 670 593.880, 670.618 597, 660.826 597 C 656.752 597, 654.877 597.478, 653.655 598.829 M 683.750 598.080 C 680.920 599.729, 681.714 603.132, 686.298 609 C 696.254 621.742, 712 642.870, 712 643.486 C 712 644.117, 701.933 657.671, 688.112 675.648 C 683.206 682.029, 681.918 684.414, 682.174 686.648 C 682.494 689.447, 682.630 689.506, 689.479 689.801 C 693.318 689.966, 697.442 689.855, 698.645 689.553 C 699.948 689.226, 705.059 683.437, 711.293 675.227 C 722.550 660.401, 724.630 658.173, 725.891 659.592 C 726.334 660.092, 730.396 665.225, 734.917 671 C 739.438 676.775, 744.704 683.413, 746.619 685.750 L 750.100 690 757.468 690 C 766.710 690, 768 689.506, 768 685.970 C 768 683.907, 765.129 679.497, 757.250 669.460 C 741.036 648.805, 738 644.741, 738 643.691 C 738 642.643, 746.029 631.704, 759.424 614.500 C 771.133 599.463, 770.907 597, 757.823 597 L 750.047 597 746.009 602.107 C 743.789 604.916, 738.300 612.128, 733.811 618.132 C 729.323 624.137, 725.311 628.926, 724.895 628.775 C 724.480 628.624, 719.365 622.200, 713.529 614.500 C 707.692 606.800, 701.986 599.712, 700.848 598.750 C 698.497 596.762, 686.800 596.304, 683.750 598.080 M 799.798 598.869 C 783.777 604.165, 772.762 615.999, 768.532 632.460 C 760.202 664.875, 787.741 695.089, 821.175 690.216 C 846.424 686.536, 863.452 665.623, 861.690 640.457 C 860.368 621.579, 849.441 606.645, 831.977 599.849 C 824.081 596.776, 807.645 596.275, 799.798 598.869 M 277.404 615.827 C 269.943 618.406, 264.607 623.097, 261.060 630.196 C 258.477 635.365, 258 637.469, 258 643.692 C 258 652.093, 259.487 656.448, 264.407 662.452 C 269.306 668.431, 276.798 672.181, 285.017 672.769 C 293.899 673.405, 300.438 671.210, 306.855 665.441 C 313.643 659.337, 316.353 653.366, 316.360 644.500 C 316.367 635.038, 313.464 628.539, 306.312 622.002 C 297.866 614.283, 287.979 612.171, 277.404 615.827 M 441.500 614.880 C 432.361 617.293, 423.437 625.333, 420.575 633.734 C 418.729 639.151, 418.532 647.705, 420.130 653.038 C 421.879 658.877, 427.875 665.950, 434 669.401 C 438.953 672.192, 440.345 672.500, 448 672.500 C 457.989 672.500, 463.863 670.107, 469.679 663.670 C 475.098 657.672, 476.954 652.663, 476.968 644 C 476.995 627.623, 466.156 615.731, 450.093 614.512 C 447.017 614.279, 443.150 614.444, 441.500 614.880 M 804.324 615.577 C 794.225 619.302, 786.142 630.366, 785.231 641.711 C 784.590 649.702, 786.214 655.438, 790.838 661.500 C 798.296 671.280, 810.974 675.184, 823.474 671.550 C 831.755 669.143, 840.144 660.753, 842.551 652.471 C 846.623 638.466, 840.385 623.795, 827.590 617.280 C 821.219 614.035, 810.609 613.259, 804.324 615.577" stroke="none" fill="#ffffff" fill-rule="evenodd"/><path d="M 175.500 565.671 C 174.400 565.965, 172.713 566.905, 171.750 567.758 C 170.121 569.203, 170 573.336, 170 627.432 C 170 694.543, 169.348 690, 178.985 690 C 187.587 690, 188 689.319, 188 675.125 L 188 663.392 191.298 660.196 C 193.111 658.438, 195.308 657, 196.179 657 C 197.050 657, 203.273 663.413, 210.008 671.250 C 227.094 691.135, 225.577 690, 235.077 690 C 242.507 690, 243.116 689.839, 244.132 687.609 C 244.775 686.198, 244.869 684.596, 244.361 683.699 C 243.887 682.863, 235.963 673.377, 226.750 662.618 C 217.537 651.860, 210 642.472, 210 641.757 C 210 641.042, 217.425 632.001, 226.500 621.666 C 235.575 611.331, 243 602.058, 243 601.060 C 243 597.779, 240.569 596.898, 232.366 597.206 L 224.542 597.500 207.714 616 C 198.459 626.175, 190.237 634.645, 189.443 634.823 C 188.208 635.100, 188 630.400, 188 602.264 C 188 577.058, 187.700 568.972, 186.715 567.625 C 185.384 565.804, 179.093 564.708, 175.500 565.671 M 656.826 565.677 C 651.550 566.301, 650.493 568.129, 650.540 576.549 C 650.593 586.211, 651.343 587, 660.467 587 C 669.910 587, 671 585.899, 671 576.362 C 671 572.255, 670.471 568.659, 669.715 567.625 C 668.341 565.745, 663.028 564.942, 656.826 565.677 M 358 575 C 356.267 576.733, 356 578.333, 356 587 L 356 597 351.155 597 C 344.828 597, 343 598.944, 343 605.674 C 343 611.847, 344.779 613.738, 351.002 614.180 L 355.500 614.500 356 641.500 C 356.457 666.160, 356.681 668.891, 358.588 673.011 C 363.328 683.251, 373.135 689.098, 386.781 689.817 C 397.482 690.382, 399 689.276, 399 680.916 C 399 673.016, 397.804 672, 388.505 672 C 382.073 672, 380.772 671.679, 378.106 669.436 C 376.430 668.025, 374.598 665.213, 374.035 663.186 C 373.472 661.159, 373.009 649.263, 373.006 636.750 L 373 614 384.429 614 C 398.123 614, 399 613.489, 399 605.500 C 399 597.511, 398.123 597, 384.429 597 L 373 597 373 587 C 373 574.934, 371.826 573, 364.500 573 C 361.333 573, 359.407 573.593, 358 575 M 598 575 C 596.267 576.733, 596 578.333, 596 587 L 596 597 590.200 597 C 587.010 597, 583.860 597.540, 583.200 598.200 C 582.540 598.860, 582 601.978, 582 605.129 C 582 612.530, 583.409 614, 590.499 614 L 595.855 614 596.179 640.750 C 596.490 666.383, 596.602 667.719, 598.871 672.742 C 603.502 682.991, 613.179 689.024, 626.231 689.797 C 637.180 690.445, 639 689.146, 639 680.677 C 639 677.128, 638.478 673.878, 637.800 673.200 C 637.074 672.474, 633.550 672, 628.877 672 C 622.109 672, 620.788 671.692, 618.199 669.514 C 613.763 665.781, 613 660.872, 613 636.057 L 613 614 624.345 614 C 637.818 614, 639.009 613.302, 638.985 605.421 C 638.961 597.729, 638.701 597.569, 625.289 597 L 613.500 596.500 613.211 586.536 C 612.861 574.439, 611.971 573, 604.845 573 C 601.333 573, 599.450 573.550, 598 575 M 274.500 598.349 C 262.578 601.456, 250.781 610.578, 245.689 620.626 C 241.175 629.535, 239.728 636.373, 240.236 646.394 C 240.998 661.433, 246.671 672.817, 257.303 680.644 C 273.991 692.929, 293.057 694.334, 309.151 684.465 C 312.259 682.559, 315.296 681, 315.901 681 C 316.505 681, 317 682.324, 317 683.943 C 317 688.124, 320.155 690, 327.187 690 C 331.841 690, 333.126 689.633, 333.965 688.066 C 334.632 686.819, 335 670.888, 335 643.221 C 335 594.201, 335.521 597, 326.394 597 C 320.190 597, 317 599.057, 317 603.057 C 317 605.269, 316.534 606, 315.122 606 C 314.090 606, 312.733 605.384, 312.108 604.630 C 311.483 603.877, 308.170 602.003, 304.746 600.466 C 299.622 598.167, 296.838 597.617, 289.010 597.359 C 283.370 597.173, 277.466 597.576, 274.500 598.349 M 435 598.433 C 406.957 606.249, 392.979 637.842, 405.655 664.762 C 409 671.867, 418.691 681.796, 425.793 685.395 C 441.103 693.153, 459.916 692.403, 471.492 683.574 C 475.909 680.205, 476.650 680.319, 477.432 684.488 C 478.269 688.953, 480.639 690.172, 487.751 689.799 C 492.677 689.541, 493.621 689.161, 494.711 687 C 496.281 683.884, 496.558 607.432, 495.018 602.064 C 493.760 597.677, 492.644 597.034, 486.250 597.015 C 480.267 596.998, 477 599.288, 477 603.500 C 477 606.637, 476.026 606.636, 471.397 603.495 C 462.799 597.660, 446.104 595.338, 435 598.433 M 525.718 598.092 C 513.124 601.057, 505.641 610.963, 505.725 624.555 C 505.836 642.482, 518.116 652, 541.137 652 C 555.524 652, 561 654.974, 561 662.788 C 561 671.874, 557.703 673, 531.089 673 C 510.547 673, 510.081 673.046, 508.557 675.223 C 506.251 678.514, 506.536 685.536, 509.078 688.078 C 511.087 690.087, 511.959 690.145, 534.828 689.818 C 557.229 689.497, 558.784 689.351, 563.794 687.098 C 570.031 684.292, 575.559 678.279, 577.167 672.553 C 578.731 666.983, 578.497 656.124, 576.720 651.873 C 574.522 646.611, 569.304 641.194, 563.590 638.241 C 558.980 635.859, 557.115 635.559, 543.815 635.056 C 529.255 634.505, 529.104 634.475, 526.065 631.563 C 523.677 629.274, 523 627.770, 523 624.747 C 523 615.220, 526.168 614, 550.911 614 C 569.386 614, 569.928 613.941, 571.443 611.777 C 572.299 610.555, 573 607.730, 573 605.500 C 573 603.270, 572.299 600.445, 571.443 599.223 C 569.918 597.045, 569.482 597.002, 549.693 597.100 C 538.587 597.156, 527.798 597.602, 525.718 598.092 M 653.655 598.829 C 652.169 600.471, 652 605.050, 652 643.674 C 652 693.120, 651.382 690, 661.174 690 C 670.537 690, 670 692.841, 670 643.326 C 670 593.880, 670.618 597, 660.826 597 C 656.752 597, 654.877 597.478, 653.655 598.829 M 683.750 598.080 C 680.920 599.729, 681.714 603.132, 686.298 609 C 696.254 621.742, 712 642.870, 712 643.486 C 712 644.117, 701.933 657.671, 688.112 675.648 C 683.206 682.029, 681.918 684.414, 682.174 686.648 C 682.498 689.482, 682.549 689.502, 690.263 689.792 C 694.533 689.953, 698.785 689.660, 699.712 689.142 C 700.638 688.623, 706.154 681.966, 711.968 674.349 C 718.545 665.734, 723.288 660.412, 724.520 660.268 C 725.985 660.096, 728.841 663.067, 735.500 671.694 C 750.767 691.469, 748.958 690, 758.032 690 C 763.812 690, 766.268 689.589, 767.429 688.429 C 768.293 687.564, 769 686.516, 769 686.100 C 769 684.668, 763.030 676.473, 751.444 662 C 745.060 654.025, 739.358 646.502, 738.773 645.283 C 737.614 642.869, 739.150 640.557, 757.720 616.771 C 768.499 602.965, 769.459 601.165, 767.310 598.790 C 766.016 597.361, 764.115 597, 757.868 597 L 750.047 597 745.964 602.165 C 743.718 605.006, 738.420 611.977, 734.190 617.656 C 729.961 623.335, 725.825 627.966, 725 627.947 C 724.175 627.929, 718.570 621.374, 712.545 613.382 C 706.520 605.390, 700.812 598.434, 699.861 597.925 C 697.548 596.688, 685.950 596.799, 683.750 598.080 M 799.798 598.869 C 783.777 604.165, 772.762 615.999, 768.532 632.460 C 760.202 664.875, 787.741 695.089, 821.175 690.216 C 846.424 686.536, 863.452 665.623, 861.690 640.457 C 860.368 621.579, 849.441 606.645, 831.977 599.849 C 824.081 596.776, 807.645 596.275, 799.798 598.869 M 277.404 615.827 C 269.943 618.406, 264.607 623.097, 261.060 630.196 C 258.477 635.365, 258 637.469, 258 643.692 C 258 652.093, 259.487 656.448, 264.407 662.452 C 269.306 668.431, 276.798 672.181, 285.017 672.769 C 293.899 673.405, 300.438 671.210, 306.855 665.441 C 313.643 659.337, 316.353 653.366, 316.360 644.500 C 316.367 635.038, 313.464 628.539, 306.312 622.002 C 297.866 614.283, 287.979 612.171, 277.404 615.827 M 441.500 614.880 C 432.361 617.293, 423.437 625.333, 420.575 633.734 C 418.729 639.151, 418.532 647.705, 420.130 653.038 C 421.879 658.877, 427.875 665.950, 434 669.401 C 438.953 672.192, 440.345 672.500, 448 672.500 C 457.989 672.500, 463.863 670.107, 469.679 663.670 C 475.098 657.672, 476.954 652.663, 476.968 644 C 476.995 627.623, 466.156 615.731, 450.093 614.512 C 447.017 614.279, 443.150 614.444, 441.500 614.880 M 804.324 615.577 C 794.225 619.302, 786.142 630.366, 785.231 641.711 C 784.590 649.702, 786.214 655.438, 790.838 661.500 C 798.296 671.280, 810.974 675.184, 823.474 671.550 C 831.755 669.143, 840.144 660.753, 842.551 652.471 C 846.623 638.466, 840.385 623.795, 827.590 617.280 C 821.219 614.035, 810.609 613.259, 804.324 615.577" stroke="none" fill="#0a1f3a" fill-rule="evenodd"/><path d="M 425.302 334.012 C 419.837 336.213, 420 333.194, 420 432.500 C 420 530.920, 419.866 528.252, 424.945 530.970 C 427.878 532.540, 595.069 532.381, 598.528 530.805 C 604.210 528.216, 604 531.987, 604 432.500 C 604 332.540, 604.207 336.170, 598.387 333.957 C 595.171 332.734, 428.343 332.787, 425.302 334.012 M 458.078 369.406 C 457.214 370.447, 456.926 386.843, 456.969 432.360 C 457.001 466.211, 457.288 494.586, 457.606 495.415 C 458.514 497.781, 461.846 498.331, 464.549 496.560 C 466.863 495.044, 467 494.428, 467 485.545 C 467 476.301, 467.051 476.100, 469.904 474.068 C 471.502 472.931, 473.077 472, 473.404 472 C 473.732 472, 474 477.105, 474 483.345 C 474 493.066, 474.262 494.927, 475.829 496.345 C 478.125 498.423, 480.405 498.452, 482.429 496.429 C 483.734 495.123, 484 491.975, 484 477.819 L 484 460.781 490.517 454.140 L 497.035 447.500 500.167 451 C 501.889 452.925, 512.026 464.288, 522.693 476.250 C 537.116 492.423, 542.667 498, 544.344 498 C 547.060 498, 549 496.252, 549 493.805 C 549 492.817, 542.800 484.919, 535.222 476.255 C 513.638 451.574, 505 441.286, 505 440.259 C 505 439.737, 505.914 438.483, 507.031 437.472 C 509.442 435.290, 507.917 433.964, 522.665 451.061 C 560.486 494.907, 563.305 498, 565.434 498 C 568.187 498, 570 496.199, 570 493.465 C 570 492.137, 562.588 482.672, 550.385 468.415 C 539.597 455.812, 530.094 444.486, 529.267 443.246 C 527.482 440.568, 527.359 440.724, 553.417 412.604 C 562.538 402.761, 569.993 393.986, 569.985 393.104 C 569.957 390.194, 568.360 388.844, 565.337 389.176 C 562.987 389.434, 559.333 392.771, 547.442 405.522 C 539.224 414.334, 529.989 424.339, 526.920 427.754 L 521.340 433.965 518.661 431.168 L 515.982 428.372 531.991 411.134 C 544.866 397.269, 548 393.339, 548 391.054 C 548 388.309, 546.531 387, 543.450 387 C 542.175 387, 528.874 400.313, 485.004 445.499 C 475.927 454.849, 468.163 462.649, 467.750 462.833 C 467.337 463.016, 467 461.030, 467 458.418 C 467 453.972, 467.394 453.251, 473.203 447.085 C 489.893 429.366, 497.007 421.883, 515.250 402.856 C 536.486 380.708, 537.992 378.320, 532.349 375.749 C 529.774 374.576, 529.324 374.930, 516.453 388.271 C 509.168 395.822, 502.990 402, 502.725 402 C 502.460 402, 502.028 395.137, 501.765 386.750 C 501.502 378.363, 500.949 370.712, 500.536 369.750 C 500.035 368.580, 498.674 368, 496.428 368 C 490.972 368, 490.613 369.693, 491.308 392.134 C 491.902 411.337, 491.862 411.907, 489.730 414.667 C 486.907 418.323, 485.285 420, 484.571 420 C 484.257 420, 484 408.840, 484 395.200 C 484 368.687, 483.874 368, 479 368 C 474.047 368, 474 368.309, 474 400.895 L 474 431.391 471.313 434.195 C 469.835 435.738, 468.260 437, 467.813 437 C 467.366 437, 467 422.345, 467 404.434 C 467 383.898, 466.618 371.154, 465.965 369.934 C 464.736 367.638, 459.818 367.309, 458.078 369.406 M 493.405 463.105 C 491.710 464.978, 491.500 466.862, 491.500 480.186 C 491.500 493.856, 491.669 495.285, 493.441 496.581 C 495.946 498.413, 497.484 498.373, 499.429 496.429 C 500.721 495.136, 501 492.128, 501 479.500 C 501 466.872, 500.721 463.864, 499.429 462.571 C 497.307 460.450, 495.677 460.594, 493.405 463.105" stroke="none" fill="#b19758" fill-rule="evenodd"/></svg>