<svg xmlns="http://www.w3.org/2000/svg" viewBox="192 450 674 133" version="1.1"><path d="M 197.035 456.934 C 196.359 458.198, 196 477.267, 196 511.934 C 196 563.667, 196.050 565.050, 198 567 C 199.386 568.386, 201.333 569, 204.345 569 C 211.092 569, 212 567.346, 212 555.065 C 212 545.092, 212.091 544.673, 215.084 540.894 C 216.780 538.752, 218.498 537, 218.901 537 C 219.305 537, 225.364 543.928, 232.366 552.396 C 239.393 560.894, 246.083 568.057, 247.299 568.382 C 250.846 569.334, 258.969 569.087, 261.066 567.965 C 263.948 566.422, 263.374 564.072, 258.706 558.304 C 256.392 555.446, 249.191 546.563, 242.703 538.564 L 230.906 524.020 243.203 509.868 C 261.425 488.897, 261.172 489.230, 260.820 486.753 C 260.526 484.683, 259.907 484.476, 253.214 484.205 C 247.398 483.970, 245.466 484.275, 243.636 485.715 C 242.375 486.707, 235.135 494.489, 227.547 503.009 C 219.959 511.529, 213.357 518.650, 212.875 518.833 C 212.387 519.019, 212 505.531, 212 488.283 C 212 465.596, 211.682 457.082, 210.800 456.200 C 210.140 455.540, 207.006 455, 203.835 455 C 199.159 455, 197.875 455.365, 197.035 456.934 M 662.571 456.571 C 661.426 457.717, 661 460.148, 661 465.536 C 661 474.185, 661.775 475, 670 475 C 678.209 475, 679 474.175, 679 465.620 C 679 459.808, 678.625 457.971, 677.171 456.655 C 674.707 454.425, 664.774 454.368, 662.571 456.571 M 377 462.976 C 375.896 463.671, 375.368 466.506, 375 473.710 L 374.500 483.500 370.020 483.819 C 363.963 484.250, 363 485.303, 363 491.500 C 363 497.697, 363.963 498.750, 370.020 499.181 L 374.500 499.500 375 525 C 375.550 553.072, 375.884 554.716, 382.303 560.992 C 387.787 566.353, 393.480 568.426, 402.826 568.465 C 412.480 568.506, 414 567.422, 414 560.500 C 414 554.433, 412.623 553.323, 404.301 552.681 C 395.355 551.990, 393.656 551.096, 391.620 546.009 C 390.303 542.716, 390 537.949, 390 520.480 L 390 499 401.031 499 C 413.511 499, 413.312 499.132, 413.431 490.772 C 413.478 487.496, 413.015 485.622, 412 484.980 C 411.175 484.458, 405.887 484.024, 400.250 484.015 L 390 484 390 474.571 C 390 467.333, 389.635 464.778, 388.429 463.571 C 386.685 461.828, 379.422 461.450, 377 462.976 M 610.400 462.765 C 607.997 464.370, 607 468.231, 607 475.934 L 607 484 602.200 484 C 599.560 484, 596.860 484.540, 596.200 485.200 C 594.592 486.808, 594.649 496.464, 596.275 497.814 C 596.977 498.396, 599.672 499.013, 602.265 499.186 L 606.980 499.500 607.249 523.500 C 607.502 546.097, 607.652 547.799, 609.820 552.607 C 612.547 558.653, 618.017 564.284, 623.302 566.487 C 625.394 567.358, 630.569 568.323, 634.802 568.630 C 644.995 569.371, 646.500 568.325, 646.500 560.500 C 646.500 553.411, 644.747 551.748, 638.048 552.485 C 631.573 553.198, 626.881 551.262, 624.752 547 C 623.244 543.983, 623.003 540.430, 623.002 521.250 L 623 499 633.465 499 C 645.308 499, 646 498.566, 646 491.137 C 646 484.845, 644.452 484, 632.929 484 L 623 484 623 474.655 C 623 466.872, 622.694 465.033, 621.171 463.655 C 619.305 461.966, 612.446 461.399, 610.400 462.765 M 294.500 485.348 C 276.686 491.238, 265.049 507.493, 265.012 526.540 C 264.965 550.231, 283.950 569.851, 307.040 569.976 C 313.530 570.011, 322.722 567.415, 328.316 563.968 C 330.965 562.336, 333.292 561, 333.487 561 C 333.682 561, 334.138 562.354, 334.502 564.008 C 335.304 567.662, 337.565 569, 342.934 569 C 345.667 569, 347.656 568.344, 349 567 C 350.931 565.069, 351 563.667, 351 526.155 C 351 481.932, 351.405 484, 342.743 484 C 337.543 484, 335 485.830, 335 489.571 C 335 490.907, 334.725 492, 334.389 492 C 334.054 492, 330.382 490.321, 326.231 488.269 C 319.214 484.802, 317.971 484.521, 308.591 484.282 C 302.231 484.120, 297.021 484.514, 294.500 485.348 M 449.500 485.983 C 433.943 491.116, 422.614 506.194, 421.283 523.538 C 420.272 536.720, 424.280 547.591, 433.676 557.143 C 447.498 571.197, 468.120 573.949, 484.406 563.912 C 489.474 560.789, 490.948 561.081, 490.985 565.215 C 491.021 569.226, 501.446 570.554, 505 567 C 506.930 565.070, 507 563.667, 507 526.723 C 507 481.920, 507.372 483.718, 498.193 484.203 C 493.079 484.473, 492.427 484.773, 491.033 487.500 C 490.190 489.150, 489.419 490.656, 489.320 490.847 C 489.221 491.038, 486.097 489.696, 482.378 487.865 C 476.267 484.857, 474.648 484.511, 465.558 484.270 C 457.687 484.062, 454.195 484.434, 449.500 485.983 M 535.500 486.383 C 525.943 490.901, 522 497.509, 522 509.008 C 522 517.073, 523.826 521.584, 529.162 526.699 C 534.554 531.867, 539.159 533.309, 552.349 533.956 C 564.158 534.536, 564.208 534.549, 567.099 537.785 C 571.785 543.029, 570.639 548.999, 564.452 551.585 C 561.956 552.627, 556.324 553, 543.067 553 C 522.817 553, 523 552.929, 523 560.743 C 523 567.898, 523.018 567.904, 546.088 568.209 L 566.677 568.482 572.588 565.462 C 577.299 563.057, 579.138 561.378, 581.640 557.200 C 589.934 543.351, 585.506 528.264, 571 520.952 C 567.333 519.103, 564.215 518.574, 554.162 518.092 C 542.209 517.518, 541.749 517.413, 539.412 514.694 C 536.130 510.877, 536.302 506.813, 539.917 502.766 L 542.835 499.500 560.167 499.152 C 569.965 498.955, 578.043 498.359, 578.750 497.780 C 580.353 496.466, 580.391 486.791, 578.800 485.200 C 577.952 484.352, 572.156 484.003, 559.050 484.010 C 541.636 484.019, 540.194 484.164, 535.500 486.383 M 663.200 485.200 C 661.759 486.641, 661.481 564.632, 662.909 566.887 C 663.392 567.649, 666.033 568.489, 668.777 568.753 C 672.918 569.151, 674.128 568.872, 675.884 567.116 C 677.966 565.034, 678 564.378, 678 526.071 C 678 492.015, 677.803 486.946, 676.429 485.571 C 674.531 483.674, 664.993 483.407, 663.200 485.200 M 694.200 485.200 C 693.540 485.860, 693 487.051, 693 487.847 C 693 488.643, 699.075 497.360, 706.500 507.218 C 713.925 517.077, 720 525.570, 720 526.093 C 720 526.616, 713.925 535.042, 706.500 544.819 C 698.787 554.975, 693 563.524, 693 564.762 C 693 567.712, 695.832 569, 702.318 569 C 708.697 569, 709.227 568.518, 722.467 550.714 C 726.849 544.821, 730.709 540, 731.045 540 C 731.381 540, 736.095 545.885, 741.521 553.079 C 746.947 560.272, 752.299 566.797, 753.416 567.579 C 755.779 569.234, 765.228 569.483, 768.066 567.965 C 769.130 567.395, 770 566.092, 770 565.068 C 770 564.044, 763.689 554.836, 755.975 544.607 L 741.949 526.009 755.296 508.255 C 771.084 487.252, 770.292 488.494, 769.497 485.991 C 768.942 484.242, 767.976 484, 761.549 484 C 754.361 484, 754.173 484.066, 750.857 487.750 C 749 489.813, 743.936 496.337, 739.603 502.250 C 735.270 508.163, 731.609 513, 731.468 513 C 731.326 513, 727.153 507.488, 722.195 500.750 C 709.365 483.315, 710.185 484, 702.161 484 C 698.236 484, 694.897 484.503, 694.200 485.200 M 804.500 485.402 C 797.357 487.667, 791.677 491.153, 786.538 496.426 C 770.098 513.295, 769.902 539.385, 786.087 556.498 C 807.951 579.617, 848.078 571.241, 857.939 541.500 C 862.164 528.755, 861.546 518.695, 855.818 507.008 C 850.509 496.174, 841.142 488.469, 829.500 485.359 C 823.268 483.695, 809.813 483.718, 804.500 485.402 M 296.500 502.353 C 289.919 505.424, 284.511 511.540, 282.556 518.122 C 279.343 528.941, 281.585 537.961, 289.376 545.559 C 295.642 551.670, 301.043 553.511, 310.479 552.754 C 324.839 551.601, 334.125 541.255, 334.125 526.409 C 334.125 506.894, 314.145 494.119, 296.500 502.353 M 452.199 502.588 C 438.659 509.335, 433.461 525.167, 440.350 538.672 C 445.197 548.172, 453.097 552.948, 464 552.968 C 484.402 553.007, 496.879 532.412, 487.541 514.113 C 482.800 504.823, 474.822 500.058, 463.946 500.022 C 458.870 500.005, 456.222 500.584, 452.199 502.588 M 807.303 501.645 C 802.084 503.493, 795.436 509.827, 792.936 515.332 C 789.943 521.925, 790.297 532.256, 793.750 539.064 C 798.519 548.468, 806.559 552.983, 818.554 552.994 C 829.493 553.005, 839.008 546.295, 842.472 536.128 C 846.914 523.092, 841.305 508.321, 829.722 502.549 C 823.738 499.567, 814.249 499.184, 807.303 501.645" stroke="none" fill="#ffffff" fill-rule="evenodd"/><path d="M 197.035 456.934 C 196.359 458.198, 196 477.267, 196 511.934 C 196 563.667, 196.050 565.050, 198 567 C 199.386 568.386, 201.333 569, 204.345 569 C 211.087 569, 212 567.343, 212 555.105 C 212 545.601, 212.188 544.620, 214.619 541.433 C 216.059 539.545, 217.971 538.002, 218.869 538.004 C 219.766 538.006, 225.900 544.575, 232.500 552.601 C 239.100 560.628, 245.542 567.601, 246.815 568.098 C 249.954 569.321, 258.684 569.240, 261.066 567.965 C 264.951 565.886, 264.943 565.873, 243.044 539 C 236.993 531.575, 232.033 524.897, 232.021 524.160 C 232.009 523.423, 237.287 516.718, 243.750 509.260 C 261.487 488.790, 261.169 489.209, 260.820 486.753 C 260.526 484.683, 259.907 484.476, 253.214 484.205 C 247.409 483.971, 245.466 484.276, 243.653 485.705 C 242.401 486.692, 235.352 494.250, 227.987 502.500 C 220.622 510.750, 214.012 517.645, 213.298 517.823 C 212.255 518.083, 212 512.173, 212 487.773 C 212 465.483, 211.681 457.081, 210.800 456.200 C 210.140 455.540, 207.006 455, 203.835 455 C 199.159 455, 197.875 455.365, 197.035 456.934 M 663.268 455.656 C 659.585 457.146, 659.363 472.054, 662.995 473.997 C 665.445 475.308, 674.595 475.287, 677.066 473.965 C 679.841 472.479, 679.922 459.145, 677.171 456.655 C 675.407 455.058, 666.354 454.408, 663.268 455.656 M 377 462.976 C 375.896 463.671, 375.368 466.506, 375 473.710 L 374.500 483.500 370.020 483.819 C 363.963 484.250, 363 485.303, 363 491.500 C 363 497.697, 363.963 498.750, 370.020 499.181 L 374.500 499.500 375 525 C 375.550 553.072, 375.884 554.716, 382.303 560.992 C 387.787 566.353, 393.480 568.426, 402.826 568.465 C 412.480 568.506, 414 567.422, 414 560.500 C 414 554.433, 412.623 553.323, 404.301 552.681 C 395.355 551.990, 393.656 551.096, 391.620 546.009 C 390.303 542.716, 390 537.949, 390 520.480 L 390 499 401.031 499 C 413.511 499, 413.312 499.132, 413.431 490.772 C 413.478 487.496, 413.015 485.622, 412 484.980 C 411.175 484.458, 405.887 484.024, 400.250 484.015 L 390 484 390 474.571 C 390 467.333, 389.635 464.778, 388.429 463.571 C 386.685 461.828, 379.422 461.450, 377 462.976 M 610.400 462.765 C 607.997 464.370, 607 468.231, 607 475.934 L 607 484 602.200 484 C 599.560 484, 596.860 484.540, 596.200 485.200 C 594.409 486.991, 594.665 496.477, 596.546 498.038 C 597.396 498.744, 600.055 499.247, 602.455 499.156 L 606.818 498.991 607.185 523.245 C 607.528 545.922, 607.700 547.832, 609.838 552.607 C 612.540 558.645, 618.007 564.280, 623.302 566.487 C 625.394 567.358, 630.569 568.323, 634.802 568.630 C 644.995 569.371, 646.500 568.325, 646.500 560.500 C 646.500 553.411, 644.747 551.748, 638.048 552.485 C 631.573 553.198, 626.881 551.262, 624.752 547 C 623.244 543.983, 623.003 540.430, 623.002 521.250 L 623 499 633.465 499 C 645.308 499, 646 498.566, 646 491.137 C 646 484.845, 644.452 484, 632.929 484 L 623 484 623 474.655 C 623 466.872, 622.694 465.033, 621.171 463.655 C 619.305 461.966, 612.446 461.399, 610.400 462.765 M 300.580 484.160 C 280.357 486.928, 265.054 505.162, 265.012 526.540 C 264.970 547.818, 279.939 565.771, 300.685 569.325 C 309.012 570.751, 318.293 569.166, 326.753 564.872 C 332.083 562.166, 333.302 561.864, 334.060 563.062 C 334.560 563.853, 334.976 565.047, 334.985 565.715 C 335.030 569.289, 345.730 570.270, 349 567 C 350.931 565.069, 351 563.667, 351 526.155 C 351 481.932, 351.405 484, 342.743 484 C 338.026 484, 335 485.799, 335 488.603 C 335 491.192, 332.320 491.196, 327.224 488.613 C 318.892 484.391, 309.887 482.886, 300.580 484.160 M 449.500 485.983 C 433.943 491.116, 422.614 506.194, 421.283 523.538 C 420.272 536.720, 424.280 547.591, 433.676 557.143 C 446.898 570.587, 465.610 573.573, 482.598 564.950 C 489.018 561.692, 491 561.709, 491 565.024 C 491 569.200, 501.340 570.660, 505 567 C 506.930 565.070, 507 563.667, 507 526.723 C 507 481.920, 507.372 483.718, 498.193 484.203 C 493.079 484.473, 492.427 484.773, 491.033 487.500 C 490.190 489.150, 489.419 490.656, 489.320 490.847 C 489.221 491.038, 486.097 489.696, 482.378 487.865 C 476.267 484.857, 474.648 484.511, 465.558 484.270 C 457.687 484.062, 454.195 484.434, 449.500 485.983 M 535.500 486.383 C 526.032 490.859, 521.824 497.833, 521.824 509.046 C 521.824 516.714, 523.863 521.619, 529.162 526.699 C 534.554 531.867, 539.159 533.309, 552.349 533.956 C 564.158 534.536, 564.208 534.549, 567.099 537.785 C 571.785 543.029, 570.639 548.999, 564.452 551.585 C 561.956 552.627, 556.324 553, 543.067 553 C 522.817 553, 523 552.929, 523 560.743 C 523 567.855, 523.424 568.021, 542.509 568.395 C 551.854 568.577, 561.953 568.347, 564.951 567.883 C 572.728 566.679, 578.637 562.657, 582.366 556.028 C 585.008 551.331, 585.440 549.559, 585.412 543.528 C 585.361 532.777, 581.045 526.015, 571 520.952 C 567.333 519.103, 564.215 518.574, 554.162 518.092 C 542.209 517.518, 541.749 517.413, 539.412 514.694 C 536.130 510.877, 536.302 506.813, 539.917 502.766 L 542.835 499.500 560.167 499.152 C 569.965 498.955, 578.043 498.359, 578.750 497.780 C 580.353 496.466, 580.391 486.791, 578.800 485.200 C 577.952 484.352, 572.156 484.003, 559.050 484.010 C 541.636 484.019, 540.194 484.164, 535.500 486.383 M 663.200 485.200 C 661.759 486.641, 661.481 564.632, 662.909 566.887 C 663.392 567.649, 666.033 568.489, 668.777 568.753 C 672.918 569.151, 674.128 568.872, 675.884 567.116 C 677.966 565.034, 678 564.378, 678 526.071 C 678 492.015, 677.803 486.946, 676.429 485.571 C 674.531 483.674, 664.993 483.407, 663.200 485.200 M 694.200 485.200 C 693.540 485.860, 693 487.051, 693 487.847 C 693 488.643, 699.075 497.360, 706.500 507.218 C 713.925 517.077, 720 525.561, 720 526.072 C 720 526.583, 713.700 535.326, 706 545.500 C 698.300 555.674, 692 564.423, 692 564.943 C 692 567.134, 696.649 569, 702.106 569 C 707.399 569, 707.986 568.754, 711.134 565.211 C 712.985 563.127, 717.875 556.843, 722 551.246 C 726.125 545.650, 730.175 541.062, 731 541.050 C 731.825 541.039, 736.748 546.683, 741.941 553.592 C 747.134 560.501, 752.296 566.794, 753.413 567.577 C 755.779 569.234, 765.227 569.484, 768.066 567.965 C 769.130 567.395, 770 566.098, 770 565.081 C 770 564.064, 763.925 555.159, 756.500 545.291 C 749.075 535.424, 743 526.748, 743 526.011 C 743 525.275, 748.767 516.983, 755.816 507.586 C 771.048 487.280, 770.287 488.481, 769.497 485.991 C 768.943 484.245, 767.976 484, 761.629 484 C 753.074 484, 752.997 484.062, 740.488 501 C 736.223 506.775, 732.157 511.500, 731.451 511.500 C 730.745 511.500, 726.167 506.100, 721.277 499.500 C 709.293 483.323, 710.129 484, 702.129 484 C 698.229 484, 694.896 484.504, 694.200 485.200 M 804.500 485.402 C 797.357 487.667, 791.677 491.153, 786.538 496.426 C 770.098 513.295, 769.902 539.385, 786.087 556.498 C 807.951 579.617, 848.078 571.241, 857.939 541.500 C 862.164 528.755, 861.546 518.695, 855.818 507.008 C 850.509 496.174, 841.142 488.469, 829.500 485.359 C 823.268 483.695, 809.813 483.718, 804.500 485.402 M 296.500 502.300 C 289.890 505.455, 284.503 511.567, 282.556 518.122 C 279.343 528.941, 281.585 537.961, 289.376 545.559 C 295.642 551.670, 301.043 553.511, 310.479 552.754 C 325.675 551.534, 334.659 540.722, 333.847 524.632 C 333.503 517.827, 333.104 516.614, 329.484 511.370 C 324.238 503.771, 318.355 500.637, 308.544 500.216 C 302.773 499.968, 300.596 500.345, 296.500 502.300 M 452.199 502.588 C 438.659 509.335, 433.461 525.167, 440.350 538.672 C 445.197 548.172, 453.097 552.948, 464 552.968 C 484.402 553.007, 496.879 532.412, 487.541 514.113 C 482.800 504.823, 474.822 500.058, 463.946 500.022 C 458.870 500.005, 456.222 500.584, 452.199 502.588 M 807.303 501.645 C 802.084 503.493, 795.436 509.827, 792.936 515.332 C 789.943 521.925, 790.297 532.256, 793.750 539.064 C 798.519 548.468, 806.559 552.983, 818.554 552.994 C 829.493 553.005, 839.008 546.295, 842.472 536.128 C 846.914 523.092, 841.305 508.321, 829.722 502.549 C 823.738 499.567, 814.249 499.184, 807.303 501.645" stroke="none" fill="#273542" fill-rule="evenodd"/></svg>